<svg xmlns="http://www.w3.org/2000/svg" width="680" height="610">
<rect x="0" y="0" width="680" height="610" fill="white"/>
<text x="340.0" y="44" text-anchor="middle" font-size="20" font-family="Arial">双向匹配：父母问题→老人经验（test Top1）</text>
<text x="430.0" y="78" text-anchor="middle" font-size="14" font-family="Arial">Pred</text>
<text x="60" y="320.0" text-anchor="middle" font-size="14" font-family="Arial" transform="rotate(-90 60 320.0)">Truth</text>
<text x="255.0" y="98" text-anchor="middle" font-size="12" font-family="Arial">发育行为</text>
<text x="210" y="149.0" text-anchor="end" font-size="12" font-family="Arial">发育行为</text>
<text x="325.0" y="98" text-anchor="middle" font-size="12" font-family="Arial">喂养护理</text>
<text x="210" y="219.0" text-anchor="end" font-size="12" font-family="Arial">喂养护理</text>
<text x="395.0" y="98" text-anchor="middle" font-size="12" font-family="Arial">安全防护</text>
<text x="210" y="289.0" text-anchor="end" font-size="12" font-family="Arial">安全防护</text>
<text x="465.0" y="98" text-anchor="middle" font-size="12" font-family="Arial">疫苗保健</text>
<text x="210" y="359.0" text-anchor="end" font-size="12" font-family="Arial">疫苗保健</text>
<text x="535.0" y="98" text-anchor="middle" font-size="12" font-family="Arial">疾病护理</text>
<text x="210" y="429.0" text-anchor="end" font-size="12" font-family="Arial">疾病护理</text>
<text x="605.0" y="98" text-anchor="middle" font-size="12" font-family="Arial">睡眠安抚</text>
<text x="210" y="499.0" text-anchor="end" font-size="12" font-family="Arial">睡眠安抚</text>
<rect x="220" y="110" width="70" height="70" fill="rgb(88,136,240)" stroke="#111827" stroke-width="1"/>
<text x="255.0" y="150.0" text-anchor="middle" font-size="14" font-family="Arial">74</text>
<rect x="290" y="110" width="70" height="70" fill="rgb(210,225,252)" stroke="#111827" stroke-width="1"/>
<text x="325.0" y="150.0" text-anchor="middle" font-size="14" font-family="Arial">14</text>
<rect x="360" y="110" width="70" height="70" fill="rgb(239,246,255)" stroke="#111827" stroke-width="1"/>
<text x="395.0" y="150.0" text-anchor="middle" font-size="14" font-family="Arial">0</text>
<rect x="430" y="110" width="70" height="70" fill="rgb(239,246,255)" stroke="#111827" stroke-width="1"/>
<text x="465.0" y="150.0" text-anchor="middle" font-size="14" font-family="Arial">0</text>
<rect x="500" y="110" width="70" height="70" fill="rgb(239,246,255)" stroke="#111827" stroke-width="1"/>
<text x="535.0" y="150.0" text-anchor="middle" font-size="14" font-family="Arial">0</text>
<rect x="570" y="110" width="70" height="70" fill="rgb(239,246,255)" stroke="#111827" stroke-width="1"/>
<text x="605.0" y="150.0" text-anchor="middle" font-size="14" font-family="Arial">0</text>
<rect x="220" y="180" width="70" height="70" fill="rgb(239,246,255)" stroke="#111827" stroke-width="1"/>
<text x="255.0" y="220.0" text-anchor="middle" font-size="14" font-family="Arial">0</text>
<rect x="290" y="180" width="70" height="70" fill="rgb(175,199,248)" stroke="#111827" stroke-width="1"/>
<text x="325.0" y="220.0" text-anchor="middle" font-size="14" font-family="Arial">31</text>
<rect x="360" y="180" width="70" height="70" fill="rgb(239,246,255)" stroke="#111827" stroke-width="1"/>
<text x="395.0" y="220.0" text-anchor="middle" font-size="14" font-family="Arial">0</text>
<rect x="430" y="180" width="70" height="70" fill="rgb(239,246,255)" stroke="#111827" stroke-width="1"/>
<text x="465.0" y="220.0" text-anchor="middle" font-size="14" font-family="Arial">0</text>
<rect x="500" y="180" width="70" height="70" fill="rgb(145,177,245)" stroke="#111827" stroke-width="1"/>
<text x="535.0" y="220.0" text-anchor="middle" font-size="14" font-family="Arial">46</text>
<rect x="570" y="180" width="70" height="70" fill="rgb(239,246,255)" stroke="#111827" stroke-width="1"/>
<text x="605.0" y="220.0" text-anchor="middle" font-size="14" font-family="Arial">0</text>
<rect x="220" y="250" width="70" height="70" fill="rgb(239,246,255)" stroke="#111827" stroke-width="1"/>
<text x="255.0" y="290.0" text-anchor="middle" font-size="14" font-family="Arial">0</text>
<rect x="290" y="250" width="70" height="70" fill="rgb(239,246,255)" stroke="#111827" stroke-width="1"/>
<text x="325.0" y="290.0" text-anchor="middle" font-size="14" font-family="Arial">0</text>
<rect x="360" y="250" width="70" height="70" fill="rgb(177,201,248)" stroke="#111827" stroke-width="1"/>
<text x="395.0" y="290.0" text-anchor="middle" font-size="14" font-family="Arial">30</text>
<rect x="430" y="250" width="70" height="70" fill="rgb(239,246,255)" stroke="#111827" stroke-width="1"/>
<text x="465.0" y="290.0" text-anchor="middle" font-size="14" font-family="Arial">0</text>
<rect x="500" y="250" width="70" height="70" fill="rgb(139,173,245)" stroke="#111827" stroke-width="1"/>
<text x="535.0" y="290.0" text-anchor="middle" font-size="14" font-family="Arial">49</text>
<rect x="570" y="250" width="70" height="70" fill="rgb(239,246,255)" stroke="#111827" stroke-width="1"/>
<text x="605.0" y="290.0" text-anchor="middle" font-size="14" font-family="Arial">0</text>
<rect x="220" y="320" width="70" height="70" fill="rgb(239,246,255)" stroke="#111827" stroke-width="1"/>
<text x="255.0" y="360.0" text-anchor="middle" font-size="14" font-family="Arial">0</text>
<rect x="290" y="320" width="70" height="70" fill="rgb(239,246,255)" stroke="#111827" stroke-width="1"/>
<text x="325.0" y="360.0" text-anchor="middle" font-size="14" font-family="Arial">0</text>
<rect x="360" y="320" width="70" height="70" fill="rgb(239,246,255)" stroke="#111827" stroke-width="1"/>
<text x="395.0" y="360.0" text-anchor="middle" font-size="14" font-family="Arial">0</text>
<rect x="430" y="320" width="70" height="70" fill="rgb(239,246,255)" stroke="#111827" stroke-width="1"/>
<text x="465.0" y="360.0" text-anchor="middle" font-size="14" font-family="Arial">0</text>
<rect x="500" y="320" width="70" height="70" fill="rgb(110,152,242)" stroke="#111827" stroke-width="1"/>
<text x="535.0" y="360.0" text-anchor="middle" font-size="14" font-family="Arial">63</text>
<rect x="570" y="320" width="70" height="70" fill="rgb(216,229,252)" stroke="#111827" stroke-width="1"/>
<text x="605.0" y="360.0" text-anchor="middle" font-size="14" font-family="Arial">11</text>
<rect x="220" y="390" width="70" height="70" fill="rgb(239,246,255)" stroke="#111827" stroke-width="1"/>
<text x="255.0" y="430.0" text-anchor="middle" font-size="14" font-family="Arial">0</text>
<rect x="290" y="390" width="70" height="70" fill="rgb(239,246,255)" stroke="#111827" stroke-width="1"/>
<text x="325.0" y="430.0" text-anchor="middle" font-size="14" font-family="Arial">0</text>
<rect x="360" y="390" width="70" height="70" fill="rgb(239,246,255)" stroke="#111827" stroke-width="1"/>
<text x="395.0" y="430.0" text-anchor="middle" font-size="14" font-family="Arial">0</text>
<rect x="430" y="390" width="70" height="70" fill="rgb(239,246,255)" stroke="#111827" stroke-width="1"/>
<text x="465.0" y="430.0" text-anchor="middle" font-size="14" font-family="Arial">0</text>
<rect x="500" y="390" width="70" height="70" fill="rgb(37,99,235)" stroke="#111827" stroke-width="1"/>
<text x="535.0" y="430.0" text-anchor="middle" font-size="14" font-family="Arial">99</text>
<rect x="570" y="390" width="70" height="70" fill="rgb(239,246,255)" stroke="#111827" stroke-width="1"/>
<text x="605.0" y="430.0" text-anchor="middle" font-size="14" font-family="Arial">0</text>
<rect x="220" y="460" width="70" height="70" fill="rgb(239,246,255)" stroke="#111827" stroke-width="1"/>
<text x="255.0" y="500.0" text-anchor="middle" font-size="14" font-family="Arial">0</text>
<rect x="290" y="460" width="70" height="70" fill="rgb(239,246,255)" stroke="#111827" stroke-width="1"/>
<text x="325.0" y="500.0" text-anchor="middle" font-size="14" font-family="Arial">0</text>
<rect x="360" y="460" width="70" height="70" fill="rgb(239,246,255)" stroke="#111827" stroke-width="1"/>
<text x="395.0" y="500.0" text-anchor="middle" font-size="14" font-family="Arial">0</text>
<rect x="430" y="460" width="70" height="70" fill="rgb(239,246,255)" stroke="#111827" stroke-width="1"/>
<text x="465.0" y="500.0" text-anchor="middle" font-size="14" font-family="Arial">0</text>
<rect x="500" y="460" width="70" height="70" fill="rgb(239,246,255)" stroke="#111827" stroke-width="1"/>
<text x="535.0" y="500.0" text-anchor="middle" font-size="14" font-family="Arial">0</text>
<rect x="570" y="460" width="70" height="70" fill="rgb(69,122,238)" stroke="#111827" stroke-width="1"/>
<text x="605.0" y="500.0" text-anchor="middle" font-size="14" font-family="Arial">83</text>
</svg>