<svg xmlns="http://www.w3.org/2000/svg" width="1100" height="520">
<rect x="0" y="0" width="1100" height="520" fill="white"/>
<text x="550.0" y="40" text-anchor="middle" font-size="20" font-family="Arial">价值评分：真实 vs 预测（verify）</text>
<line x1="90" y1="440" x2="1060" y2="440" stroke="#111827" stroke-width="1"/>
<line x1="90" y1="70" x2="90" y2="440" stroke="#111827" stroke-width="1"/>
<line x1="90.0" y1="440" x2="90.0" y2="446" stroke="#111827" stroke-width="1"/>
<text x="90.0" y="464" text-anchor="middle" font-size="12" font-family="Arial">0</text>
<line x1="84" y1="440.0" x2="90" y2="440.0" stroke="#111827" stroke-width="1"/>
<text x="80" y="444.0" text-anchor="end" font-size="12" font-family="Arial">0</text>
<line x1="90" y1="440.0" x2="1060" y2="440.0" stroke="#e5e7eb" stroke-width="1"/>
<line x1="284.0" y1="440" x2="284.0" y2="446" stroke="#111827" stroke-width="1"/>
<text x="284.0" y="464" text-anchor="middle" font-size="12" font-family="Arial">20</text>
<line x1="84" y1="366.0" x2="90" y2="366.0" stroke="#111827" stroke-width="1"/>
<text x="80" y="370.0" text-anchor="end" font-size="12" font-family="Arial">20</text>
<line x1="90" y1="366.0" x2="1060" y2="366.0" stroke="#e5e7eb" stroke-width="1"/>
<line x1="478.0" y1="440" x2="478.0" y2="446" stroke="#111827" stroke-width="1"/>
<text x="478.0" y="464" text-anchor="middle" font-size="12" font-family="Arial">40</text>
<line x1="84" y1="292.0" x2="90" y2="292.0" stroke="#111827" stroke-width="1"/>
<text x="80" y="296.0" text-anchor="end" font-size="12" font-family="Arial">40</text>
<line x1="90" y1="292.0" x2="1060" y2="292.0" stroke="#e5e7eb" stroke-width="1"/>
<line x1="672.0" y1="440" x2="672.0" y2="446" stroke="#111827" stroke-width="1"/>
<text x="672.0" y="464" text-anchor="middle" font-size="12" font-family="Arial">60</text>
<line x1="84" y1="218.0" x2="90" y2="218.0" stroke="#111827" stroke-width="1"/>
<text x="80" y="222.0" text-anchor="end" font-size="12" font-family="Arial">60</text>
<line x1="90" y1="218.0" x2="1060" y2="218.0" stroke="#e5e7eb" stroke-width="1"/>
<line x1="866.0" y1="440" x2="866.0" y2="446" stroke="#111827" stroke-width="1"/>
<text x="866.0" y="464" text-anchor="middle" font-size="12" font-family="Arial">80</text>
<line x1="84" y1="144.0" x2="90" y2="144.0" stroke="#111827" stroke-width="1"/>
<text x="80" y="148.0" text-anchor="end" font-size="12" font-family="Arial">80</text>
<line x1="90" y1="144.0" x2="1060" y2="144.0" stroke="#e5e7eb" stroke-width="1"/>
<line x1="1060.0" y1="440" x2="1060.0" y2="446" stroke="#111827" stroke-width="1"/>
<text x="1060.0" y="464" text-anchor="middle" font-size="12" font-family="Arial">100</text>
<line x1="84" y1="70.0" x2="90" y2="70.0" stroke="#111827" stroke-width="1"/>
<text x="80" y="74.0" text-anchor="end" font-size="12" font-family="Arial">100</text>
<line x1="90" y1="70.0" x2="1060" y2="70.0" stroke="#e5e7eb" stroke-width="1"/>
<line x1="90.0" y1="440.0" x2="1060.0" y2="70.0" stroke="#f97316" stroke-width="2"/>
<circle cx="943.6" cy="114.39999999999998" r="3.5" fill="#2563eb" opacity="0.7"/>
<circle cx="835.9300000000001" cy="155.46999999999997" r="3.5" fill="#2563eb" opacity="0.7"/>
<circle cx="988.2199999999999" cy="97.38000000000005" r="3.5" fill="#2563eb" opacity="0.7"/>
<circle cx="924.1999999999999" cy="121.80000000000001" r="3.5" fill="#2563eb" opacity="0.7"/>
<circle cx="1011.5" cy="88.5" r="3.5" fill="#2563eb" opacity="0.7"/>
<circle cx="974.64" cy="102.56" r="3.5" fill="#2563eb" opacity="0.7"/>
<circle cx="875.7" cy="140.29999999999995" r="3.5" fill="#2563eb" opacity="0.7"/>
<circle cx="958.15" cy="108.84999999999997" r="3.5" fill="#2563eb" opacity="0.7"/>
<circle cx="954.2699999999999" cy="110.33000000000004" r="3.5" fill="#2563eb" opacity="0.7"/>
<circle cx="1017.3199999999999" cy="86.28000000000003" r="3.5" fill="#2563eb" opacity="0.7"/>
<circle cx="851.45" cy="149.55" r="3.5" fill="#2563eb" opacity="0.7"/>
<circle cx="983.3699999999999" cy="99.23000000000002" r="3.5" fill="#2563eb" opacity="0.7"/>
<circle cx="1025.08" cy="83.32" r="3.5" fill="#2563eb" opacity="0.7"/>
<circle cx="999.8599999999999" cy="92.94" r="3.5" fill="#2563eb" opacity="0.7"/>
<circle cx="1026.05" cy="82.94999999999999" r="3.5" fill="#2563eb" opacity="0.7"/>
<circle cx="1011.5" cy="88.5" r="3.5" fill="#2563eb" opacity="0.7"/>
<circle cx="875.7" cy="140.29999999999995" r="3.5" fill="#2563eb" opacity="0.7"/>
<circle cx="1005.6800000000001" cy="90.71999999999997" r="3.5" fill="#2563eb" opacity="0.7"/>
<circle cx="971.73" cy="103.67000000000002" r="3.5" fill="#2563eb" opacity="0.7"/>
<circle cx="914.5" cy="125.5" r="3.5" fill="#2563eb" opacity="0.7"/>
<circle cx="1011.5" cy="88.5" r="3.5" fill="#2563eb" opacity="0.7"/>
<circle cx="1017.3199999999999" cy="86.28000000000003" r="3.5" fill="#2563eb" opacity="0.7"/>
<circle cx="841.75" cy="153.25" r="3.5" fill="#2563eb" opacity="0.7"/>
<circle cx="952.33" cy="111.07" r="3.5" fill="#2563eb" opacity="0.7"/>
<circle cx="1005.6800000000001" cy="90.71999999999997" r="3.5" fill="#2563eb" opacity="0.7"/>
<circle cx="1005.6800000000001" cy="90.71999999999997" r="3.5" fill="#2563eb" opacity="0.7"/>
<circle cx="942.63" cy="114.76999999999998" r="3.5" fill="#2563eb" opacity="0.7"/>
<circle cx="982.4000000000001" cy="99.59999999999997" r="3.5" fill="#2563eb" opacity="0.7"/>
<circle cx="812.65" cy="164.35000000000002" r="3.5" fill="#2563eb" opacity="0.7"/>
<circle cx="988.2199999999999" cy="97.38000000000005" r="3.5" fill="#2563eb" opacity="0.7"/>
<circle cx="1005.6800000000001" cy="90.71999999999997" r="3.5" fill="#2563eb" opacity="0.7"/>
<circle cx="924.1999999999999" cy="121.80000000000001" r="3.5" fill="#2563eb" opacity="0.7"/>
<circle cx="1011.5" cy="88.5" r="3.5" fill="#2563eb" opacity="0.7"/>
<circle cx="1005.6800000000001" cy="90.71999999999997" r="3.5" fill="#2563eb" opacity="0.7"/>
<circle cx="1005.6800000000001" cy="90.71999999999997" r="3.5" fill="#2563eb" opacity="0.7"/>
<circle cx="870.85" cy="142.14999999999998" r="3.5" fill="#2563eb" opacity="0.7"/>
<circle cx="988.2199999999999" cy="97.38000000000005" r="3.5" fill="#2563eb" opacity="0.7"/>
<circle cx="1017.3199999999999" cy="86.28000000000003" r="3.5" fill="#2563eb" opacity="0.7"/>
<circle cx="1011.5" cy="88.5" r="3.5" fill="#2563eb" opacity="0.7"/>
<circle cx="971.73" cy="103.67000000000002" r="3.5" fill="#2563eb" opacity="0.7"/>
<circle cx="1005.6800000000001" cy="90.71999999999997" r="3.5" fill="#2563eb" opacity="0.7"/>
<circle cx="1011.5" cy="88.5" r="3.5" fill="#2563eb" opacity="0.7"/>
<circle cx="1005.6800000000001" cy="90.71999999999997" r="3.5" fill="#2563eb" opacity="0.7"/>
<circle cx="1005.6800000000001" cy="90.71999999999997" r="3.5" fill="#2563eb" opacity="0.7"/>
<circle cx="963.0" cy="107.0" r="3.5" fill="#2563eb" opacity="0.7"/>
<circle cx="1017.3199999999999" cy="86.28000000000003" r="3.5" fill="#2563eb" opacity="0.7"/>
<circle cx="971.73" cy="103.67000000000002" r="3.5" fill="#2563eb" opacity="0.7"/>
<circle cx="1011.5" cy="88.5" r="3.5" fill="#2563eb" opacity="0.7"/>
<circle cx="999.8599999999999" cy="92.94" r="3.5" fill="#2563eb" opacity="0.7"/>
<circle cx="1011.5" cy="88.5" r="3.5" fill="#2563eb" opacity="0.7"/>
<circle cx="988.2199999999999" cy="89.98000000000002" r="3.5" fill="#2563eb" opacity="0.7"/>
<circle cx="988.2199999999999" cy="101.44999999999999" r="3.5" fill="#2563eb" opacity="0.7"/>
<circle cx="957.1800000000001" cy="114.39999999999998" r="3.5" fill="#2563eb" opacity="0.7"/>
<circle cx="954.2699999999999" cy="125.5" r="3.5" fill="#2563eb" opacity="0.7"/>
<circle cx="988.2199999999999" cy="88.5" r="3.5" fill="#2563eb" opacity="0.7"/>
<circle cx="957.1800000000001" cy="90.71999999999997" r="3.5" fill="#2563eb" opacity="0.7"/>
<circle cx="996.95" cy="125.5" r="3.5" fill="#2563eb" opacity="0.7"/>
<circle cx="994.0400000000001" cy="104.04000000000002" r="3.5" fill="#2563eb" opacity="0.7"/>
<circle cx="977.5500000000001" cy="82.94999999999999" r="3.5" fill="#2563eb" opacity="0.7"/>
<circle cx="954.2699999999999" cy="82.94999999999999" r="3.5" fill="#2563eb" opacity="0.7"/>
<circle cx="960.09" cy="92.94" r="3.5" fill="#2563eb" opacity="0.7"/>
<circle cx="929.05" cy="95.89999999999998" r="3.5" fill="#2563eb" opacity="0.7"/>
<circle cx="1005.6800000000001" cy="92.94" r="3.5" fill="#2563eb" opacity="0.7"/>
<circle cx="963.0" cy="88.86999999999995" r="3.5" fill="#2563eb" opacity="0.7"/>
<circle cx="954.2699999999999" cy="88.5" r="3.5" fill="#2563eb" opacity="0.7"/>
<circle cx="1026.05" cy="90.71999999999997" r="3.5" fill="#2563eb" opacity="0.7"/>
<circle cx="1030.9" cy="89.98000000000002" r="3.5" fill="#2563eb" opacity="0.7"/>
<circle cx="1008.59" cy="90.71999999999997" r="3.5" fill="#2563eb" opacity="0.7"/>
<circle cx="1014.41" cy="440.0" r="3.5" fill="#2563eb" opacity="0.7"/>
<circle cx="996.95" cy="95.89999999999998" r="3.5" fill="#2563eb" opacity="0.7"/>
<circle cx="999.8599999999999" cy="90.71999999999997" r="3.5" fill="#2563eb" opacity="0.7"/>
<circle cx="977.5500000000001" cy="91.09000000000003" r="3.5" fill="#2563eb" opacity="0.7"/>
<circle cx="988.2199999999999" cy="153.25" r="3.5" fill="#2563eb" opacity="0.7"/>
<circle cx="999.8599999999999" cy="91.09000000000003" r="3.5" fill="#2563eb" opacity="0.7"/>
<circle cx="954.2699999999999" cy="99.23000000000002" r="3.5" fill="#2563eb" opacity="0.7"/>
<circle cx="931.96" cy="125.5" r="3.5" fill="#2563eb" opacity="0.7"/>
<circle cx="963.0" cy="88.5" r="3.5" fill="#2563eb" opacity="0.7"/>
<circle cx="999.8599999999999" cy="440.0" r="3.5" fill="#2563eb" opacity="0.7"/>
<circle cx="960.09" cy="86.28000000000003" r="3.5" fill="#2563eb" opacity="0.7"/>
<circle cx="1039.63" cy="95.89999999999998" r="3.5" fill="#2563eb" opacity="0.7"/>
<circle cx="1008.59" cy="97.75" r="3.5" fill="#2563eb" opacity="0.7"/>
<circle cx="1008.59" cy="90.71999999999997" r="3.5" fill="#2563eb" opacity="0.7"/>
<circle cx="968.8199999999999" cy="88.5" r="3.5" fill="#2563eb" opacity="0.7"/>
<circle cx="974.64" cy="88.5" r="3.5" fill="#2563eb" opacity="0.7"/>
<circle cx="1008.59" cy="114.76999999999998" r="3.5" fill="#2563eb" opacity="0.7"/>
<circle cx="1005.6800000000001" cy="101.44999999999999" r="3.5" fill="#2563eb" opacity="0.7"/>
<circle cx="994.0400000000001" cy="90.71999999999997" r="3.5" fill="#2563eb" opacity="0.7"/>
<circle cx="1005.6800000000001" cy="91.09000000000003" r="3.5" fill="#2563eb" opacity="0.7"/>
<circle cx="1011.5" cy="114.76999999999998" r="3.5" fill="#2563eb" opacity="0.7"/>
<circle cx="963.0" cy="114.39999999999998" r="3.5" fill="#2563eb" opacity="0.7"/>
<circle cx="957.1800000000001" cy="125.5" r="3.5" fill="#2563eb" opacity="0.7"/>
<circle cx="929.05" cy="108.48000000000002" r="3.5" fill="#2563eb" opacity="0.7"/>
<circle cx="960.09" cy="88.86999999999995" r="3.5" fill="#2563eb" opacity="0.7"/>
<circle cx="999.8599999999999" cy="86.28000000000003" r="3.5" fill="#2563eb" opacity="0.7"/>
<circle cx="1020.23" cy="90.71999999999997" r="3.5" fill="#2563eb" opacity="0.7"/>
<circle cx="971.73" cy="114.76999999999998" r="3.5" fill="#2563eb" opacity="0.7"/>
<circle cx="994.0400000000001" cy="92.94" r="3.5" fill="#2563eb" opacity="0.7"/>
<circle cx="999.8599999999999" cy="91.09000000000003" r="3.5" fill="#2563eb" opacity="0.7"/>
<circle cx="971.73" cy="91.09000000000003" r="3.5" fill="#2563eb" opacity="0.7"/>
<circle cx="949.4199999999998" cy="101.44999999999999" r="3.5" fill="#2563eb" opacity="0.7"/>
<circle cx="1022.17" cy="101.82" r="3.5" fill="#2563eb" opacity="0.7"/>
<circle cx="952.33" cy="105.51999999999998" r="3.5" fill="#2563eb" opacity="0.7"/>
<circle cx="998.8900000000001" cy="100.34000000000003" r="3.5" fill="#2563eb" opacity="0.7"/>
<circle cx="965.91" cy="88.86999999999995" r="3.5" fill="#2563eb" opacity="0.7"/>
<circle cx="975.6099999999999" cy="109.21999999999997" r="3.5" fill="#2563eb" opacity="0.7"/>
<circle cx="963.9699999999999" cy="114.76999999999998" r="3.5" fill="#2563eb" opacity="0.7"/>
<circle cx="958.15" cy="114.76999999999998" r="3.5" fill="#2563eb" opacity="0.7"/>
<circle cx="1007.62" cy="93.68" r="3.5" fill="#2563eb" opacity="0.7"/>
<circle cx="1004.7099999999999" cy="108.48000000000002" r="3.5" fill="#2563eb" opacity="0.7"/>
<circle cx="995.98" cy="91.09000000000003" r="3.5" fill="#2563eb" opacity="0.7"/>
<circle cx="1013.44" cy="93.68" r="3.5" fill="#2563eb" opacity="0.7"/>
<circle cx="981.4300000000001" cy="91.09000000000003" r="3.5" fill="#2563eb" opacity="0.7"/>
<circle cx="964.94" cy="114.76999999999998" r="3.5" fill="#2563eb" opacity="0.7"/>
<circle cx="968.8199999999999" cy="107.0" r="3.5" fill="#2563eb" opacity="0.7"/>
<circle cx="1015.3800000000001" cy="89.98000000000002" r="3.5" fill="#2563eb" opacity="0.7"/>
<circle cx="1007.62" cy="101.82" r="3.5" fill="#2563eb" opacity="0.7"/>
<circle cx="964.94" cy="100.34000000000003" r="3.5" fill="#2563eb" opacity="0.7"/>
<circle cx="993.0699999999999" cy="114.76999999999998" r="3.5" fill="#2563eb" opacity="0.7"/>
<circle cx="990.16" cy="93.68" r="3.5" fill="#2563eb" opacity="0.7"/>
<circle cx="996.95" cy="85.54000000000002" r="3.5" fill="#2563eb" opacity="0.7"/>
<circle cx="997.92" cy="89.98000000000002" r="3.5" fill="#2563eb" opacity="0.7"/>
<circle cx="981.4300000000001" cy="89.98000000000002" r="3.5" fill="#2563eb" opacity="0.7"/>
<circle cx="1014.41" cy="89.98000000000002" r="3.5" fill="#2563eb" opacity="0.7"/>
<circle cx="979.49" cy="90.35000000000002" r="3.5" fill="#2563eb" opacity="0.7"/>
<circle cx="990.16" cy="107.0" r="3.5" fill="#2563eb" opacity="0.7"/>
<circle cx="958.15" cy="95.89999999999998" r="3.5" fill="#2563eb" opacity="0.7"/>
<circle cx="963.9699999999999" cy="90.35000000000002" r="3.5" fill="#2563eb" opacity="0.7"/>
<circle cx="958.15" cy="100.34000000000003" r="3.5" fill="#2563eb" opacity="0.7"/>
<circle cx="964.94" cy="114.76999999999998" r="3.5" fill="#2563eb" opacity="0.7"/>
<circle cx="961.0600000000001" cy="109.21999999999997" r="3.5" fill="#2563eb" opacity="0.7"/>
<circle cx="951.36" cy="107.0" r="3.5" fill="#2563eb" opacity="0.7"/>
<circle cx="991.13" cy="106.63000000000005" r="3.5" fill="#2563eb" opacity="0.7"/>
<circle cx="1001.8" cy="100.34000000000003" r="3.5" fill="#2563eb" opacity="0.7"/>
<circle cx="1003.74" cy="93.68" r="3.5" fill="#2563eb" opacity="0.7"/>
<circle cx="1005.6800000000001" cy="101.82" r="3.5" fill="#2563eb" opacity="0.7"/>
<circle cx="991.13" cy="103.30000000000001" r="3.5" fill="#2563eb" opacity="0.7"/>
<circle cx="981.4300000000001" cy="100.34000000000003" r="3.5" fill="#2563eb" opacity="0.7"/>
<circle cx="966.88" cy="103.30000000000001" r="3.5" fill="#2563eb" opacity="0.7"/>
<circle cx="988.2199999999999" cy="108.48000000000002" r="3.5" fill="#2563eb" opacity="0.7"/>
<circle cx="979.49" cy="95.89999999999998" r="3.5" fill="#2563eb" opacity="0.7"/>
<circle cx="997.92" cy="91.09000000000003" r="3.5" fill="#2563eb" opacity="0.7"/>
<circle cx="986.2800000000001" cy="91.09000000000003" r="3.5" fill="#2563eb" opacity="0.7"/>
<circle cx="1021.1999999999999" cy="100.34000000000003" r="3.5" fill="#2563eb" opacity="0.7"/>
<circle cx="986.2800000000001" cy="93.68" r="3.5" fill="#2563eb" opacity="0.7"/>
<circle cx="965.91" cy="106.63000000000005" r="3.5" fill="#2563eb" opacity="0.7"/>
<circle cx="1010.5300000000001" cy="91.09000000000003" r="3.5" fill="#2563eb" opacity="0.7"/>
<circle cx="1005.6800000000001" cy="108.48000000000002" r="3.5" fill="#2563eb" opacity="0.7"/>
<circle cx="1022.17" cy="100.34000000000003" r="3.5" fill="#2563eb" opacity="0.7"/>
<circle cx="987.25" cy="109.21999999999997" r="3.5" fill="#2563eb" opacity="0.7"/>
<circle cx="998.8900000000001" cy="108.48000000000002" r="3.5" fill="#2563eb" opacity="0.7"/>
<circle cx="990.16" cy="108.48000000000002" r="3.5" fill="#2563eb" opacity="0.7"/>
<circle cx="1013.44" cy="101.82" r="3.5" fill="#2563eb" opacity="0.7"/>
<circle cx="1003.74" cy="108.48000000000002" r="3.5" fill="#2563eb" opacity="0.7"/>
<circle cx="1004.7099999999999" cy="100.34000000000003" r="3.5" fill="#2563eb" opacity="0.7"/>
<circle cx="1022.17" cy="91.45999999999998" r="3.5" fill="#2563eb" opacity="0.7"/>
<circle cx="960.09" cy="85.54000000000002" r="3.5" fill="#2563eb" opacity="0.7"/>
<circle cx="996.95" cy="108.48000000000002" r="3.5" fill="#2563eb" opacity="0.7"/>
<circle cx="1017.3199999999999" cy="88.86999999999995" r="3.5" fill="#2563eb" opacity="0.7"/>
<circle cx="966.88" cy="101.44999999999999" r="3.5" fill="#2563eb" opacity="0.7"/>
<circle cx="969.7900000000001" cy="106.63000000000005" r="3.5" fill="#2563eb" opacity="0.7"/>
<circle cx="973.67" cy="88.86999999999995" r="3.5" fill="#2563eb" opacity="0.7"/>
<circle cx="991.13" cy="90.35000000000002" r="3.5" fill="#2563eb" opacity="0.7"/>
<circle cx="995.98" cy="84.80000000000001" r="3.5" fill="#2563eb" opacity="0.7"/>
<circle cx="1007.62" cy="84.80000000000001" r="3.5" fill="#2563eb" opacity="0.7"/>
<circle cx="977.5500000000001" cy="106.63000000000005" r="3.5" fill="#2563eb" opacity="0.7"/>
<circle cx="1010.5300000000001" cy="93.68" r="3.5" fill="#2563eb" opacity="0.7"/>
<circle cx="994.0400000000001" cy="100.34000000000003" r="3.5" fill="#2563eb" opacity="0.7"/>
<circle cx="976.58" cy="89.98000000000002" r="3.5" fill="#2563eb" opacity="0.7"/>
<circle cx="976.58" cy="114.76999999999998" r="3.5" fill="#2563eb" opacity="0.7"/>
<circle cx="977.5500000000001" cy="105.51999999999998" r="3.5" fill="#2563eb" opacity="0.7"/>
<circle cx="996.95" cy="89.98000000000002" r="3.5" fill="#2563eb" opacity="0.7"/>
<circle cx="964.94" cy="114.76999999999998" r="3.5" fill="#2563eb" opacity="0.7"/>
<circle cx="983.3699999999999" cy="89.98000000000002" r="3.5" fill="#2563eb" opacity="0.7"/>
<circle cx="995.98" cy="85.54000000000002" r="3.5" fill="#2563eb" opacity="0.7"/>
<circle cx="995.98" cy="106.63000000000005" r="3.5" fill="#2563eb" opacity="0.7"/>
<circle cx="975.6099999999999" cy="100.34000000000003" r="3.5" fill="#2563eb" opacity="0.7"/>
<circle cx="997.92" cy="109.21999999999997" r="3.5" fill="#2563eb" opacity="0.7"/>
<circle cx="982.4000000000001" cy="106.63000000000005" r="3.5" fill="#2563eb" opacity="0.7"/>
<circle cx="973.67" cy="95.89999999999998" r="3.5" fill="#2563eb" opacity="0.7"/>
<circle cx="995.01" cy="85.54000000000002" r="3.5" fill="#2563eb" opacity="0.7"/>
<circle cx="986.2800000000001" cy="101.44999999999999" r="3.5" fill="#2563eb" opacity="0.7"/>
<circle cx="982.4000000000001" cy="89.98000000000002" r="3.5" fill="#2563eb" opacity="0.7"/>
<circle cx="973.67" cy="95.89999999999998" r="3.5" fill="#2563eb" opacity="0.7"/>
<circle cx="993.0699999999999" cy="85.54000000000002" r="3.5" fill="#2563eb" opacity="0.7"/>
<circle cx="958.15" cy="107.0" r="3.5" fill="#2563eb" opacity="0.7"/>
<circle cx="963.0" cy="97.75" r="3.5" fill="#2563eb" opacity="0.7"/>
<circle cx="985.31" cy="91.09000000000003" r="3.5" fill="#2563eb" opacity="0.7"/>
<circle cx="957.1800000000001" cy="95.89999999999998" r="3.5" fill="#2563eb" opacity="0.7"/>
<circle cx="991.13" cy="84.80000000000001" r="3.5" fill="#2563eb" opacity="0.7"/>
<circle cx="973.67" cy="109.21999999999997" r="3.5" fill="#2563eb" opacity="0.7"/>
<circle cx="988.2199999999999" cy="108.48000000000002" r="3.5" fill="#2563eb" opacity="0.7"/>
<circle cx="982.4000000000001" cy="114.76999999999998" r="3.5" fill="#2563eb" opacity="0.7"/>
<circle cx="973.67" cy="93.68" r="3.5" fill="#2563eb" opacity="0.7"/>
<circle cx="987.25" cy="101.82" r="3.5" fill="#2563eb" opacity="0.7"/>
<circle cx="984.34" cy="109.21999999999997" r="3.5" fill="#2563eb" opacity="0.7"/>
<circle cx="998.8900000000001" cy="103.67000000000002" r="3.5" fill="#2563eb" opacity="0.7"/>
<circle cx="991.13" cy="107.0" r="3.5" fill="#2563eb" opacity="0.7"/>
<circle cx="972.7" cy="89.98000000000002" r="3.5" fill="#2563eb" opacity="0.7"/>
<circle cx="1008.59" cy="101.82" r="3.5" fill="#2563eb" opacity="0.7"/>
<circle cx="986.2800000000001" cy="107.0" r="3.5" fill="#2563eb" opacity="0.7"/>
<circle cx="964.94" cy="93.68" r="3.5" fill="#2563eb" opacity="0.7"/>
<circle cx="1000.83" cy="91.09000000000003" r="3.5" fill="#2563eb" opacity="0.7"/>
<circle cx="949.4199999999998" cy="95.89999999999998" r="3.5" fill="#2563eb" opacity="0.7"/>
<circle cx="1027.02" cy="89.98000000000002" r="3.5" fill="#2563eb" opacity="0.7"/>
<circle cx="978.52" cy="105.51999999999998" r="3.5" fill="#2563eb" opacity="0.7"/>
<circle cx="975.6099999999999" cy="108.48000000000002" r="3.5" fill="#2563eb" opacity="0.7"/>
<circle cx="999.8599999999999" cy="91.09000000000003" r="3.5" fill="#2563eb" opacity="0.7"/>
<circle cx="984.34" cy="84.80000000000001" r="3.5" fill="#2563eb" opacity="0.7"/>
<circle cx="995.01" cy="108.48000000000002" r="3.5" fill="#2563eb" opacity="0.7"/>
<circle cx="981.4300000000001" cy="89.98000000000002" r="3.5" fill="#2563eb" opacity="0.7"/>
<circle cx="1005.6800000000001" cy="85.54000000000002" r="3.5" fill="#2563eb" opacity="0.7"/>
<circle cx="993.0699999999999" cy="89.98000000000002" r="3.5" fill="#2563eb" opacity="0.7"/>
<circle cx="976.58" cy="93.68" r="3.5" fill="#2563eb" opacity="0.7"/>
<circle cx="998.8900000000001" cy="91.09000000000003" r="3.5" fill="#2563eb" opacity="0.7"/>
<circle cx="985.31" cy="93.68" r="3.5" fill="#2563eb" opacity="0.7"/>
<circle cx="989.19" cy="101.44999999999999" r="3.5" fill="#2563eb" opacity="0.7"/>
<circle cx="955.24" cy="103.30000000000001" r="3.5" fill="#2563eb" opacity="0.7"/>
<circle cx="957.1800000000001" cy="108.48000000000002" r="3.5" fill="#2563eb" opacity="0.7"/>
<circle cx="990.16" cy="89.98000000000002" r="3.5" fill="#2563eb" opacity="0.7"/>
<circle cx="968.8199999999999" cy="107.0" r="3.5" fill="#2563eb" opacity="0.7"/>
<circle cx="941.66" cy="114.76999999999998" r="3.5" fill="#2563eb" opacity="0.7"/>
<circle cx="984.34" cy="107.0" r="3.5" fill="#2563eb" opacity="0.7"/>
<circle cx="1016.3499999999999" cy="97.75" r="3.5" fill="#2563eb" opacity="0.7"/>
<circle cx="1027.9900000000002" cy="89.98000000000002" r="3.5" fill="#2563eb" opacity="0.7"/>
<circle cx="989.19" cy="100.34000000000003" r="3.5" fill="#2563eb" opacity="0.7"/>
<circle cx="1007.62" cy="101.44999999999999" r="3.5" fill="#2563eb" opacity="0.7"/>
<circle cx="1007.62" cy="88.86999999999995" r="3.5" fill="#2563eb" opacity="0.7"/>
<circle cx="995.98" cy="91.09000000000003" r="3.5" fill="#2563eb" opacity="0.7"/>
<circle cx="973.67" cy="106.63000000000005" r="3.5" fill="#2563eb" opacity="0.7"/>
<circle cx="975.6099999999999" cy="105.51999999999998" r="3.5" fill="#2563eb" opacity="0.7"/>
<circle cx="951.36" cy="107.0" r="3.5" fill="#2563eb" opacity="0.7"/>
<circle cx="948.45" cy="109.21999999999997" r="3.5" fill="#2563eb" opacity="0.7"/>
<circle cx="930.99" cy="95.89999999999998" r="3.5" fill="#2563eb" opacity="0.7"/>
<circle cx="1001.8" cy="89.98000000000002" r="3.5" fill="#2563eb" opacity="0.7"/>
<circle cx="994.0400000000001" cy="109.21999999999997" r="3.5" fill="#2563eb" opacity="0.7"/>
<circle cx="995.01" cy="101.44999999999999" r="3.5" fill="#2563eb" opacity="0.7"/>
<circle cx="974.64" cy="95.89999999999998" r="3.5" fill="#2563eb" opacity="0.7"/>
<circle cx="998.8900000000001" cy="109.21999999999997" r="3.5" fill="#2563eb" opacity="0.7"/>
<circle cx="991.13" cy="93.68" r="3.5" fill="#2563eb" opacity="0.7"/>
<circle cx="945.54" cy="91.09000000000003" r="3.5" fill="#2563eb" opacity="0.7"/>
<circle cx="962.03" cy="89.98000000000002" r="3.5" fill="#2563eb" opacity="0.7"/>
<circle cx="990.16" cy="93.68" r="3.5" fill="#2563eb" opacity="0.7"/>
<circle cx="962.03" cy="107.0" r="3.5" fill="#2563eb" opacity="0.7"/>
<circle cx="990.16" cy="107.0" r="3.5" fill="#2563eb" opacity="0.7"/>
<circle cx="949.4199999999998" cy="103.30000000000001" r="3.5" fill="#2563eb" opacity="0.7"/>
<circle cx="990.16" cy="89.98000000000002" r="3.5" fill="#2563eb" opacity="0.7"/>
<circle cx="970.7599999999999" cy="105.51999999999998" r="3.5" fill="#2563eb" opacity="0.7"/>
<circle cx="995.01" cy="89.98000000000002" r="3.5" fill="#2563eb" opacity="0.7"/>
<circle cx="987.25" cy="95.89999999999998" r="3.5" fill="#2563eb" opacity="0.7"/>
<circle cx="948.45" cy="95.89999999999998" r="3.5" fill="#2563eb" opacity="0.7"/>
<circle cx="1029.93" cy="88.86999999999995" r="3.5" fill="#2563eb" opacity="0.7"/>
<circle cx="974.64" cy="101.82" r="3.5" fill="#2563eb" opacity="0.7"/>
<circle cx="995.98" cy="100.34000000000003" r="3.5" fill="#2563eb" opacity="0.7"/>
<circle cx="964.94" cy="105.51999999999998" r="3.5" fill="#2563eb" opacity="0.7"/>
<circle cx="995.98" cy="89.98000000000002" r="3.5" fill="#2563eb" opacity="0.7"/>
<circle cx="995.98" cy="109.21999999999997" r="3.5" fill="#2563eb" opacity="0.7"/>
<circle cx="976.58" cy="85.90999999999997" r="3.5" fill="#2563eb" opacity="0.7"/>
<circle cx="982.4000000000001" cy="106.63000000000005" r="3.5" fill="#2563eb" opacity="0.7"/>
<circle cx="951.36" cy="101.44999999999999" r="3.5" fill="#2563eb" opacity="0.7"/>
<circle cx="1003.74" cy="101.82" r="3.5" fill="#2563eb" opacity="0.7"/>
<circle cx="963.9699999999999" cy="107.0" r="3.5" fill="#2563eb" opacity="0.7"/>
<circle cx="1009.56" cy="100.34000000000003" r="3.5" fill="#2563eb" opacity="0.7"/>
<circle cx="1039.63" cy="89.98000000000002" r="3.5" fill="#2563eb" opacity="0.7"/>
<circle cx="989.19" cy="106.63000000000005" r="3.5" fill="#2563eb" opacity="0.7"/>
<circle cx="994.0400000000001" cy="93.68" r="3.5" fill="#2563eb" opacity="0.7"/>
<circle cx="999.8599999999999" cy="85.54000000000002" r="3.5" fill="#2563eb" opacity="0.7"/>
<circle cx="983.3699999999999" cy="109.21999999999997" r="3.5" fill="#2563eb" opacity="0.7"/>
<circle cx="1016.3499999999999" cy="89.98000000000002" r="3.5" fill="#2563eb" opacity="0.7"/>
<circle cx="980.4599999999999" cy="100.34000000000003" r="3.5" fill="#2563eb" opacity="0.7"/>
<circle cx="999.8599999999999" cy="106.63000000000005" r="3.5" fill="#2563eb" opacity="0.7"/>
<circle cx="990.16" cy="95.89999999999998" r="3.5" fill="#2563eb" opacity="0.7"/>
<circle cx="983.3699999999999" cy="85.54000000000002" r="3.5" fill="#2563eb" opacity="0.7"/>
<circle cx="979.49" cy="88.86999999999995" r="3.5" fill="#2563eb" opacity="0.7"/>
<circle cx="995.01" cy="89.98000000000002" r="3.5" fill="#2563eb" opacity="0.7"/>
<circle cx="1030.9" cy="89.98000000000002" r="3.5" fill="#2563eb" opacity="0.7"/>
<circle cx="1023.1400000000001" cy="89.98000000000002" r="3.5" fill="#2563eb" opacity="0.7"/>
<circle cx="963.0" cy="114.76999999999998" r="3.5" fill="#2563eb" opacity="0.7"/>
<circle cx="987.25" cy="90.35000000000002" r="3.5" fill="#2563eb" opacity="0.7"/>
<circle cx="980.4599999999999" cy="91.09000000000003" r="3.5" fill="#2563eb" opacity="0.7"/>
<circle cx="938.75" cy="105.51999999999998" r="3.5" fill="#2563eb" opacity="0.7"/>
<circle cx="998.8900000000001" cy="100.34000000000003" r="3.5" fill="#2563eb" opacity="0.7"/>
<circle cx="994.0400000000001" cy="109.21999999999997" r="3.5" fill="#2563eb" opacity="0.7"/>
<circle cx="998.8900000000001" cy="101.44999999999999" r="3.5" fill="#2563eb" opacity="0.7"/>
<circle cx="1023.1400000000001" cy="85.54000000000002" r="3.5" fill="#2563eb" opacity="0.7"/>
<circle cx="987.25" cy="100.34000000000003" r="3.5" fill="#2563eb" opacity="0.7"/>
<circle cx="980.4599999999999" cy="97.75" r="3.5" fill="#2563eb" opacity="0.7"/>
<circle cx="986.2800000000001" cy="91.09000000000003" r="3.5" fill="#2563eb" opacity="0.7"/>
<circle cx="944.5699999999999" cy="109.21999999999997" r="3.5" fill="#2563eb" opacity="0.7"/>
<circle cx="990.16" cy="100.34000000000003" r="3.5" fill="#2563eb" opacity="0.7"/>
<circle cx="987.25" cy="84.80000000000001" r="3.5" fill="#2563eb" opacity="0.7"/>
<circle cx="1004.7099999999999" cy="109.21999999999997" r="3.5" fill="#2563eb" opacity="0.7"/>
<circle cx="1004.7099999999999" cy="93.68" r="3.5" fill="#2563eb" opacity="0.7"/>
<circle cx="973.67" cy="109.21999999999997" r="3.5" fill="#2563eb" opacity="0.7"/>
<circle cx="960.09" cy="90.35000000000002" r="3.5" fill="#2563eb" opacity="0.7"/>
<circle cx="993.0699999999999" cy="101.82" r="3.5" fill="#2563eb" opacity="0.7"/>
<circle cx="1005.6800000000001" cy="100.34000000000003" r="3.5" fill="#2563eb" opacity="0.7"/>
<circle cx="965.91" cy="91.09000000000003" r="3.5" fill="#2563eb" opacity="0.7"/>
<circle cx="947.48" cy="109.21999999999997" r="3.5" fill="#2563eb" opacity="0.7"/>
<circle cx="1011.5" cy="89.98000000000002" r="3.5" fill="#2563eb" opacity="0.7"/>
<circle cx="1013.44" cy="101.82" r="3.5" fill="#2563eb" opacity="0.7"/>
<circle cx="974.64" cy="101.82" r="3.5" fill="#2563eb" opacity="0.7"/>
<circle cx="1001.8" cy="100.34000000000003" r="3.5" fill="#2563eb" opacity="0.7"/>
<circle cx="980.4599999999999" cy="85.54000000000002" r="3.5" fill="#2563eb" opacity="0.7"/>
<circle cx="1010.5300000000001" cy="107.0" r="3.5" fill="#2563eb" opacity="0.7"/>
<circle cx="967.85" cy="105.51999999999998" r="3.5" fill="#2563eb" opacity="0.7"/>
<circle cx="1013.44" cy="100.34000000000003" r="3.5" fill="#2563eb" opacity="0.7"/>
<circle cx="957.1800000000001" cy="114.76999999999998" r="3.5" fill="#2563eb" opacity="0.7"/>
<circle cx="946.51" cy="95.89999999999998" r="3.5" fill="#2563eb" opacity="0.7"/>
<circle cx="979.49" cy="103.30000000000001" r="3.5" fill="#2563eb" opacity="0.7"/>
<circle cx="1009.56" cy="103.30000000000001" r="3.5" fill="#2563eb" opacity="0.7"/>
<circle cx="998.8900000000001" cy="97.75" r="3.5" fill="#2563eb" opacity="0.7"/>
<circle cx="969.7900000000001" cy="109.21999999999997" r="3.5" fill="#2563eb" opacity="0.7"/>
<circle cx="943.6" cy="105.51999999999998" r="3.5" fill="#2563eb" opacity="0.7"/>
<circle cx="1008.59" cy="88.86999999999995" r="3.5" fill="#2563eb" opacity="0.7"/>
<circle cx="981.4300000000001" cy="114.76999999999998" r="3.5" fill="#2563eb" opacity="0.7"/>
<circle cx="994.0400000000001" cy="100.34000000000003" r="3.5" fill="#2563eb" opacity="0.7"/>
<circle cx="1006.65" cy="88.86999999999995" r="3.5" fill="#2563eb" opacity="0.7"/>
<circle cx="1018.2900000000001" cy="101.44999999999999" r="3.5" fill="#2563eb" opacity="0.7"/>
<circle cx="964.94" cy="95.89999999999998" r="3.5" fill="#2563eb" opacity="0.7"/>
<circle cx="957.1800000000001" cy="91.09000000000003" r="3.5" fill="#2563eb" opacity="0.7"/>
<circle cx="982.4000000000001" cy="105.51999999999998" r="3.5" fill="#2563eb" opacity="0.7"/>
<circle cx="977.5500000000001" cy="103.30000000000001" r="3.5" fill="#2563eb" opacity="0.7"/>
<circle cx="1004.7099999999999" cy="89.98000000000002" r="3.5" fill="#2563eb" opacity="0.7"/>
<circle cx="995.98" cy="84.80000000000001" r="3.5" fill="#2563eb" opacity="0.7"/>
<circle cx="988.2199999999999" cy="100.34000000000003" r="3.5" fill="#2563eb" opacity="0.7"/>
<circle cx="1004.7099999999999" cy="97.75" r="3.5" fill="#2563eb" opacity="0.7"/>
<circle cx="1002.77" cy="101.82" r="3.5" fill="#2563eb" opacity="0.7"/>
<circle cx="994.0400000000001" cy="97.75" r="3.5" fill="#2563eb" opacity="0.7"/>
<circle cx="981.4300000000001" cy="91.09000000000003" r="3.5" fill="#2563eb" opacity="0.7"/>
<circle cx="961.0600000000001" cy="114.76999999999998" r="3.5" fill="#2563eb" opacity="0.7"/>
<circle cx="1010.5300000000001" cy="91.09000000000003" r="3.5" fill="#2563eb" opacity="0.7"/>
<circle cx="995.98" cy="89.98000000000002" r="3.5" fill="#2563eb" opacity="0.7"/>
<circle cx="968.8199999999999" cy="91.09000000000003" r="3.5" fill="#2563eb" opacity="0.7"/>
<circle cx="972.7" cy="91.09000000000003" r="3.5" fill="#2563eb" opacity="0.7"/>
<circle cx="955.24" cy="103.30000000000001" r="3.5" fill="#2563eb" opacity="0.7"/>
<circle cx="1000.83" cy="91.09000000000003" r="3.5" fill="#2563eb" opacity="0.7"/>
<circle cx="966.88" cy="89.98000000000002" r="3.5" fill="#2563eb" opacity="0.7"/>
<circle cx="969.7900000000001" cy="109.58999999999997" r="3.5" fill="#2563eb" opacity="0.7"/>
<circle cx="975.6099999999999" cy="95.89999999999998" r="3.5" fill="#2563eb" opacity="0.7"/>
<circle cx="994.0400000000001" cy="93.68" r="3.5" fill="#2563eb" opacity="0.7"/>
<circle cx="995.98" cy="101.44999999999999" r="3.5" fill="#2563eb" opacity="0.7"/>
<circle cx="1001.8" cy="100.34000000000003" r="3.5" fill="#2563eb" opacity="0.7"/>
<circle cx="989.19" cy="114.76999999999998" r="3.5" fill="#2563eb" opacity="0.7"/>
<circle cx="969.7900000000001" cy="100.34000000000003" r="3.5" fill="#2563eb" opacity="0.7"/>
<circle cx="997.92" cy="100.34000000000003" r="3.5" fill="#2563eb" opacity="0.7"/>
<circle cx="1000.83" cy="89.98000000000002" r="3.5" fill="#2563eb" opacity="0.7"/>
<circle cx="937.7800000000001" cy="105.51999999999998" r="3.5" fill="#2563eb" opacity="0.7"/>
<circle cx="1000.83" cy="85.90999999999997" r="3.5" fill="#2563eb" opacity="0.7"/>
<circle cx="978.52" cy="95.89999999999998" r="3.5" fill="#2563eb" opacity="0.7"/>
<circle cx="970.7599999999999" cy="114.76999999999998" r="3.5" fill="#2563eb" opacity="0.7"/>
<circle cx="969.7900000000001" cy="90.35000000000002" r="3.5" fill="#2563eb" opacity="0.7"/>
<circle cx="992.1" cy="89.98000000000002" r="3.5" fill="#2563eb" opacity="0.7"/>
<circle cx="1024.1100000000001" cy="85.90999999999997" r="3.5" fill="#2563eb" opacity="0.7"/>
<circle cx="999.8599999999999" cy="103.30000000000001" r="3.5" fill="#2563eb" opacity="0.7"/>
<circle cx="983.3699999999999" cy="93.68" r="3.5" fill="#2563eb" opacity="0.7"/>
<circle cx="966.88" cy="91.09000000000003" r="3.5" fill="#2563eb" opacity="0.7"/>
<circle cx="991.13" cy="101.44999999999999" r="3.5" fill="#2563eb" opacity="0.7"/>
<circle cx="942.63" cy="114.76999999999998" r="3.5" fill="#2563eb" opacity="0.7"/>
<circle cx="977.5500000000001" cy="109.21999999999997" r="3.5" fill="#2563eb" opacity="0.7"/>
<circle cx="981.4300000000001" cy="100.34000000000003" r="3.5" fill="#2563eb" opacity="0.7"/>
<circle cx="998.8900000000001" cy="107.0" r="3.5" fill="#2563eb" opacity="0.7"/>
<circle cx="983.3699999999999" cy="107.0" r="3.5" fill="#2563eb" opacity="0.7"/>
<circle cx="951.36" cy="105.51999999999998" r="3.5" fill="#2563eb" opacity="0.7"/>
<circle cx="998.8900000000001" cy="101.82" r="3.5" fill="#2563eb" opacity="0.7"/>
<circle cx="970.7599999999999" cy="95.89999999999998" r="3.5" fill="#2563eb" opacity="0.7"/>
<circle cx="956.21" cy="109.21999999999997" r="3.5" fill="#2563eb" opacity="0.7"/>
<circle cx="958.15" cy="85.54000000000002" r="3.5" fill="#2563eb" opacity="0.7"/>
<circle cx="994.0400000000001" cy="108.48000000000002" r="3.5" fill="#2563eb" opacity="0.7"/>
<circle cx="1032.8400000000001" cy="99.23000000000002" r="3.5" fill="#2563eb" opacity="0.7"/>
<circle cx="965.91" cy="101.44999999999999" r="3.5" fill="#2563eb" opacity="0.7"/>
<circle cx="987.25" cy="93.68" r="3.5" fill="#2563eb" opacity="0.7"/>
<circle cx="973.67" cy="88.86999999999995" r="3.5" fill="#2563eb" opacity="0.7"/>
<circle cx="1013.44" cy="84.80000000000001" r="3.5" fill="#2563eb" opacity="0.7"/>
<circle cx="955.24" cy="90.35000000000002" r="3.5" fill="#2563eb" opacity="0.7"/>
<circle cx="990.16" cy="101.82" r="3.5" fill="#2563eb" opacity="0.7"/>
<circle cx="966.88" cy="114.76999999999998" r="3.5" fill="#2563eb" opacity="0.7"/>
<circle cx="1014.41" cy="100.34000000000003" r="3.5" fill="#2563eb" opacity="0.7"/>
<circle cx="961.0600000000001" cy="114.76999999999998" r="3.5" fill="#2563eb" opacity="0.7"/>
<circle cx="1001.8" cy="88.86999999999995" r="3.5" fill="#2563eb" opacity="0.7"/>
<circle cx="972.7" cy="114.76999999999998" r="3.5" fill="#2563eb" opacity="0.7"/>
<circle cx="975.6099999999999" cy="109.21999999999997" r="3.5" fill="#2563eb" opacity="0.7"/>
<circle cx="971.73" cy="109.21999999999997" r="3.5" fill="#2563eb" opacity="0.7"/>
<circle cx="963.9699999999999" cy="109.21999999999997" r="3.5" fill="#2563eb" opacity="0.7"/>
<circle cx="978.52" cy="89.98000000000002" r="3.5" fill="#2563eb" opacity="0.7"/>
<circle cx="966.88" cy="91.09000000000003" r="3.5" fill="#2563eb" opacity="0.7"/>
<circle cx="998.8900000000001" cy="93.68" r="3.5" fill="#2563eb" opacity="0.7"/>
<circle cx="984.34" cy="91.09000000000003" r="3.5" fill="#2563eb" opacity="0.7"/>
<circle cx="1000.83" cy="114.76999999999998" r="3.5" fill="#2563eb" opacity="0.7"/>
<circle cx="979.49" cy="89.98000000000002" r="3.5" fill="#2563eb" opacity="0.7"/>
<circle cx="993.0699999999999" cy="109.21999999999997" r="3.5" fill="#2563eb" opacity="0.7"/>
<circle cx="978.52" cy="109.21999999999997" r="3.5" fill="#2563eb" opacity="0.7"/>
<circle cx="958.15" cy="101.44999999999999" r="3.5" fill="#2563eb" opacity="0.7"/>
<circle cx="934.87" cy="105.51999999999998" r="3.5" fill="#2563eb" opacity="0.7"/>
<circle cx="958.15" cy="95.89999999999998" r="3.5" fill="#2563eb" opacity="0.7"/>
<circle cx="1000.83" cy="88.86999999999995" r="3.5" fill="#2563eb" opacity="0.7"/>
<circle cx="1003.74" cy="89.98000000000002" r="3.5" fill="#2563eb" opacity="0.7"/>
<circle cx="1022.17" cy="89.98000000000002" r="3.5" fill="#2563eb" opacity="0.7"/>
<circle cx="1009.56" cy="93.68" r="3.5" fill="#2563eb" opacity="0.7"/>
<circle cx="987.25" cy="107.0" r="3.5" fill="#2563eb" opacity="0.7"/>
<circle cx="993.0699999999999" cy="100.34000000000003" r="3.5" fill="#2563eb" opacity="0.7"/>
<circle cx="1002.77" cy="89.98000000000002" r="3.5" fill="#2563eb" opacity="0.7"/>
<circle cx="999.8599999999999" cy="89.98000000000002" r="3.5" fill="#2563eb" opacity="0.7"/>
<circle cx="968.8199999999999" cy="109.21999999999997" r="3.5" fill="#2563eb" opacity="0.7"/>
<circle cx="982.4000000000001" cy="85.90999999999997" r="3.5" fill="#2563eb" opacity="0.7"/>
<circle cx="981.4300000000001" cy="103.30000000000001" r="3.5" fill="#2563eb" opacity="0.7"/>
<circle cx="1027.9900000000002" cy="101.82" r="3.5" fill="#2563eb" opacity="0.7"/>
<circle cx="985.31" cy="90.35000000000002" r="3.5" fill="#2563eb" opacity="0.7"/>
<circle cx="967.85" cy="89.98000000000002" r="3.5" fill="#2563eb" opacity="0.7"/>
<circle cx="997.92" cy="89.98000000000002" r="3.5" fill="#2563eb" opacity="0.7"/>
<circle cx="964.94" cy="100.34000000000003" r="3.5" fill="#2563eb" opacity="0.7"/>
<circle cx="986.2800000000001" cy="90.35000000000002" r="3.5" fill="#2563eb" opacity="0.7"/>
<circle cx="947.48" cy="101.44999999999999" r="3.5" fill="#2563eb" opacity="0.7"/>
<circle cx="1003.74" cy="89.98000000000002" r="3.5" fill="#2563eb" opacity="0.7"/>
<circle cx="960.09" cy="91.09000000000003" r="3.5" fill="#2563eb" opacity="0.7"/>
<circle cx="978.52" cy="90.35000000000002" r="3.5" fill="#2563eb" opacity="0.7"/>
<circle cx="976.58" cy="90.35000000000002" r="3.5" fill="#2563eb" opacity="0.7"/>
<circle cx="966.88" cy="100.34000000000003" r="3.5" fill="#2563eb" opacity="0.7"/>
<circle cx="988.2199999999999" cy="89.98000000000002" r="3.5" fill="#2563eb" opacity="0.7"/>
<circle cx="980.4599999999999" cy="91.09000000000003" r="3.5" fill="#2563eb" opacity="0.7"/>
<circle cx="980.4599999999999" cy="103.30000000000001" r="3.5" fill="#2563eb" opacity="0.7"/>
<circle cx="1033.81" cy="101.82" r="3.5" fill="#2563eb" opacity="0.7"/>
<circle cx="941.66" cy="109.21999999999997" r="3.5" fill="#2563eb" opacity="0.7"/>
<circle cx="976.58" cy="114.76999999999998" r="3.5" fill="#2563eb" opacity="0.7"/>
<circle cx="985.31" cy="95.89999999999998" r="3.5" fill="#2563eb" opacity="0.7"/>
<circle cx="963.9699999999999" cy="105.51999999999998" r="3.5" fill="#2563eb" opacity="0.7"/>
<circle cx="966.88" cy="109.21999999999997" r="3.5" fill="#2563eb" opacity="0.7"/>
<circle cx="966.88" cy="95.89999999999998" r="3.5" fill="#2563eb" opacity="0.7"/>
<circle cx="966.88" cy="95.89999999999998" r="3.5" fill="#2563eb" opacity="0.7"/>
<circle cx="1025.08" cy="89.98000000000002" r="3.5" fill="#2563eb" opacity="0.7"/>
<circle cx="960.09" cy="91.09000000000003" r="3.5" fill="#2563eb" opacity="0.7"/>
<circle cx="949.4199999999998" cy="109.21999999999997" r="3.5" fill="#2563eb" opacity="0.7"/>
<circle cx="1016.3499999999999" cy="100.34000000000003" r="3.5" fill="#2563eb" opacity="0.7"/>
<circle cx="996.95" cy="95.89999999999998" r="3.5" fill="#2563eb" opacity="0.7"/>
<circle cx="987.25" cy="101.44999999999999" r="3.5" fill="#2563eb" opacity="0.7"/>
<circle cx="964.94" cy="105.51999999999998" r="3.5" fill="#2563eb" opacity="0.7"/>
<circle cx="963.9699999999999" cy="109.21999999999997" r="3.5" fill="#2563eb" opacity="0.7"/>
<circle cx="956.21" cy="105.51999999999998" r="3.5" fill="#2563eb" opacity="0.7"/>
<circle cx="968.8199999999999" cy="91.09000000000003" r="3.5" fill="#2563eb" opacity="0.7"/>
<circle cx="947.48" cy="109.21999999999997" r="3.5" fill="#2563eb" opacity="0.7"/>
<circle cx="1002.77" cy="90.35000000000002" r="3.5" fill="#2563eb" opacity="0.7"/>
<circle cx="975.6099999999999" cy="85.54000000000002" r="3.5" fill="#2563eb" opacity="0.7"/>
<circle cx="997.92" cy="97.75" r="3.5" fill="#2563eb" opacity="0.7"/>
<circle cx="1005.6800000000001" cy="107.0" r="3.5" fill="#2563eb" opacity="0.7"/>
<circle cx="981.4300000000001" cy="109.21999999999997" r="3.5" fill="#2563eb" opacity="0.7"/>
<circle cx="1010.5300000000001" cy="93.68" r="3.5" fill="#2563eb" opacity="0.7"/>
<circle cx="980.4599999999999" cy="108.48000000000002" r="3.5" fill="#2563eb" opacity="0.7"/>
<circle cx="999.8599999999999" cy="85.54000000000002" r="3.5" fill="#2563eb" opacity="0.7"/>
<circle cx="984.34" cy="93.68" r="3.5" fill="#2563eb" opacity="0.7"/>
<circle cx="991.13" cy="90.35000000000002" r="3.5" fill="#2563eb" opacity="0.7"/>
<circle cx="1007.62" cy="100.34000000000003" r="3.5" fill="#2563eb" opacity="0.7"/>
<circle cx="970.7599999999999" cy="107.0" r="3.5" fill="#2563eb" opacity="0.7"/>
<circle cx="1016.3499999999999" cy="91.09000000000003" r="3.5" fill="#2563eb" opacity="0.7"/>
<circle cx="957.1800000000001" cy="109.21999999999997" r="3.5" fill="#2563eb" opacity="0.7"/>
<circle cx="992.1" cy="107.0" r="3.5" fill="#2563eb" opacity="0.7"/>
<circle cx="1034.7800000000002" cy="93.68" r="3.5" fill="#2563eb" opacity="0.7"/>
<circle cx="1022.17" cy="84.80000000000001" r="3.5" fill="#2563eb" opacity="0.7"/>
<circle cx="985.31" cy="101.82" r="3.5" fill="#2563eb" opacity="0.7"/>
<circle cx="985.31" cy="90.35000000000002" r="3.5" fill="#2563eb" opacity="0.7"/>
<circle cx="1006.65" cy="93.68" r="3.5" fill="#2563eb" opacity="0.7"/>
<circle cx="990.16" cy="107.0" r="3.5" fill="#2563eb" opacity="0.7"/>
<circle cx="970.7599999999999" cy="95.89999999999998" r="3.5" fill="#2563eb" opacity="0.7"/>
<circle cx="998.8900000000001" cy="93.68" r="3.5" fill="#2563eb" opacity="0.7"/>
<circle cx="990.16" cy="105.51999999999998" r="3.5" fill="#2563eb" opacity="0.7"/>
<circle cx="1006.65" cy="100.34000000000003" r="3.5" fill="#2563eb" opacity="0.7"/>
<circle cx="988.2199999999999" cy="97.75" r="3.5" fill="#2563eb" opacity="0.7"/>
<circle cx="984.34" cy="91.09000000000003" r="3.5" fill="#2563eb" opacity="0.7"/>
<circle cx="973.67" cy="100.34000000000003" r="3.5" fill="#2563eb" opacity="0.7"/>
<circle cx="983.3699999999999" cy="89.98000000000002" r="3.5" fill="#2563eb" opacity="0.7"/>
<circle cx="1025.08" cy="89.98000000000002" r="3.5" fill="#2563eb" opacity="0.7"/>
<circle cx="978.52" cy="101.82" r="3.5" fill="#2563eb" opacity="0.7"/>
<circle cx="1009.56" cy="108.48000000000002" r="3.5" fill="#2563eb" opacity="0.7"/>
<circle cx="962.03" cy="89.98000000000002" r="3.5" fill="#2563eb" opacity="0.7"/>
<circle cx="995.98" cy="91.09000000000003" r="3.5" fill="#2563eb" opacity="0.7"/>
<circle cx="962.03" cy="108.48000000000002" r="3.5" fill="#2563eb" opacity="0.7"/>
<circle cx="984.34" cy="89.98000000000002" r="3.5" fill="#2563eb" opacity="0.7"/>
<circle cx="950.39" cy="114.76999999999998" r="3.5" fill="#2563eb" opacity="0.7"/>
<circle cx="958.15" cy="95.89999999999998" r="3.5" fill="#2563eb" opacity="0.7"/>
<circle cx="992.1" cy="91.09000000000003" r="3.5" fill="#2563eb" opacity="0.7"/>
<circle cx="1027.9900000000002" cy="89.98000000000002" r="3.5" fill="#2563eb" opacity="0.7"/>
<circle cx="999.8599999999999" cy="100.34000000000003" r="3.5" fill="#2563eb" opacity="0.7"/>
<circle cx="992.1" cy="106.63000000000005" r="3.5" fill="#2563eb" opacity="0.7"/>
<circle cx="1006.65" cy="100.34000000000003" r="3.5" fill="#2563eb" opacity="0.7"/>
<circle cx="1002.77" cy="89.98000000000002" r="3.5" fill="#2563eb" opacity="0.7"/>
<circle cx="992.1" cy="88.86999999999995" r="3.5" fill="#2563eb" opacity="0.7"/>
<circle cx="963.0" cy="95.89999999999998" r="3.5" fill="#2563eb" opacity="0.7"/>
<circle cx="995.01" cy="93.68" r="3.5" fill="#2563eb" opacity="0.7"/>
<circle cx="995.98" cy="103.67000000000002" r="3.5" fill="#2563eb" opacity="0.7"/>
<circle cx="986.2800000000001" cy="89.98000000000002" r="3.5" fill="#2563eb" opacity="0.7"/>
<circle cx="1010.5300000000001" cy="93.68" r="3.5" fill="#2563eb" opacity="0.7"/>
<circle cx="996.95" cy="101.82" r="3.5" fill="#2563eb" opacity="0.7"/>
<circle cx="961.0600000000001" cy="108.48000000000002" r="3.5" fill="#2563eb" opacity="0.7"/>
<circle cx="1010.5300000000001" cy="95.89999999999998" r="3.5" fill="#2563eb" opacity="0.7"/>
<circle cx="986.2800000000001" cy="106.63000000000005" r="3.5" fill="#2563eb" opacity="0.7"/>
<circle cx="968.8199999999999" cy="89.98000000000002" r="3.5" fill="#2563eb" opacity="0.7"/>
<circle cx="1003.74" cy="114.76999999999998" r="3.5" fill="#2563eb" opacity="0.7"/>
<circle cx="1002.77" cy="85.54000000000002" r="3.5" fill="#2563eb" opacity="0.7"/>
<circle cx="974.64" cy="97.75" r="3.5" fill="#2563eb" opacity="0.7"/>
<circle cx="978.52" cy="108.48000000000002" r="3.5" fill="#2563eb" opacity="0.7"/>
<circle cx="1011.5" cy="89.98000000000002" r="3.5" fill="#2563eb" opacity="0.7"/>
<circle cx="956.21" cy="90.35000000000002" r="3.5" fill="#2563eb" opacity="0.7"/>
<text x="575.0" y="500" text-anchor="middle" font-size="14" font-family="Arial">真实价值评分</text>
<text x="30" y="255.0" text-anchor="middle" font-size="14" font-family="Arial" transform="rotate(-90 30 255.0)">预测价值评分</text>
</svg>