<svg xmlns="http://www.w3.org/2000/svg" width="1100" height="520">
<rect x="0" y="0" width="1100" height="520" fill="white"/>
<text x="550.0" y="40" text-anchor="middle" font-size="20" font-family="Arial">价值评分：真实 vs 预测（test）</text>
<line x1="90" y1="440" x2="1060" y2="440" stroke="#111827" stroke-width="1"/>
<line x1="90" y1="70" x2="90" y2="440" stroke="#111827" stroke-width="1"/>
<line x1="90.0" y1="440" x2="90.0" y2="446" stroke="#111827" stroke-width="1"/>
<text x="90.0" y="464" text-anchor="middle" font-size="12" font-family="Arial">80</text>
<line x1="84" y1="440.0" x2="90" y2="440.0" stroke="#111827" stroke-width="1"/>
<text x="80" y="444.0" text-anchor="end" font-size="12" font-family="Arial">80</text>
<line x1="90" y1="440.0" x2="1060" y2="440.0" stroke="#e5e7eb" stroke-width="1"/>
<line x1="284.0" y1="440" x2="284.0" y2="446" stroke="#111827" stroke-width="1"/>
<text x="284.0" y="464" text-anchor="middle" font-size="12" font-family="Arial">84</text>
<line x1="84" y1="366.0" x2="90" y2="366.0" stroke="#111827" stroke-width="1"/>
<text x="80" y="370.0" text-anchor="end" font-size="12" font-family="Arial">84</text>
<line x1="90" y1="366.0" x2="1060" y2="366.0" stroke="#e5e7eb" stroke-width="1"/>
<line x1="478.0" y1="440" x2="478.0" y2="446" stroke="#111827" stroke-width="1"/>
<text x="478.0" y="464" text-anchor="middle" font-size="12" font-family="Arial">88</text>
<line x1="84" y1="292.0" x2="90" y2="292.0" stroke="#111827" stroke-width="1"/>
<text x="80" y="296.0" text-anchor="end" font-size="12" font-family="Arial">88</text>
<line x1="90" y1="292.0" x2="1060" y2="292.0" stroke="#e5e7eb" stroke-width="1"/>
<line x1="672.0" y1="440" x2="672.0" y2="446" stroke="#111827" stroke-width="1"/>
<text x="672.0" y="464" text-anchor="middle" font-size="12" font-family="Arial">92</text>
<line x1="84" y1="218.0" x2="90" y2="218.0" stroke="#111827" stroke-width="1"/>
<text x="80" y="222.0" text-anchor="end" font-size="12" font-family="Arial">92</text>
<line x1="90" y1="218.0" x2="1060" y2="218.0" stroke="#e5e7eb" stroke-width="1"/>
<line x1="866.0" y1="440" x2="866.0" y2="446" stroke="#111827" stroke-width="1"/>
<text x="866.0" y="464" text-anchor="middle" font-size="12" font-family="Arial">96</text>
<line x1="84" y1="144.0" x2="90" y2="144.0" stroke="#111827" stroke-width="1"/>
<text x="80" y="148.0" text-anchor="end" font-size="12" font-family="Arial">96</text>
<line x1="90" y1="144.0" x2="1060" y2="144.0" stroke="#e5e7eb" stroke-width="1"/>
<line x1="1060.0" y1="440" x2="1060.0" y2="446" stroke="#111827" stroke-width="1"/>
<text x="1060.0" y="464" text-anchor="middle" font-size="12" font-family="Arial">100</text>
<line x1="84" y1="70.0" x2="90" y2="70.0" stroke="#111827" stroke-width="1"/>
<text x="80" y="74.0" text-anchor="end" font-size="12" font-family="Arial">100</text>
<line x1="90" y1="70.0" x2="1060" y2="70.0" stroke="#e5e7eb" stroke-width="1"/>
<line x1="90.0" y1="440.0" x2="1060.0" y2="70.0" stroke="#f97316" stroke-width="2"/>
<circle cx="681.7" cy="430.75" r="3.5" fill="#2563eb" opacity="0.7"/>
<circle cx="667.1500000000003" cy="229.0999999999999" r="3.5" fill="#2563eb" opacity="0.7"/>
<circle cx="672.0" cy="266.0999999999999" r="3.5" fill="#2563eb" opacity="0.7"/>
<circle cx="531.3499999999997" cy="205.04999999999995" r="3.5" fill="#2563eb" opacity="0.7"/>
<circle cx="710.8" cy="175.45000000000005" r="3.5" fill="#2563eb" opacity="0.7"/>
<circle cx="739.9000000000002" cy="227.25000000000003" r="3.5" fill="#2563eb" opacity="0.7"/>
<circle cx="739.9000000000002" cy="430.75" r="3.5" fill="#2563eb" opacity="0.7"/>
<circle cx="482.8499999999997" cy="138.45000000000005" r="3.5" fill="#2563eb" opacity="0.7"/>
<circle cx="739.9000000000002" cy="293.8499999999999" r="3.5" fill="#2563eb" opacity="0.7"/>
<circle cx="633.2000000000002" cy="229.0999999999999" r="3.5" fill="#2563eb" opacity="0.7"/>
<circle cx="618.6500000000002" cy="134.75" r="3.5" fill="#2563eb" opacity="0.7"/>
<circle cx="628.3499999999997" cy="175.45000000000005" r="3.5" fill="#2563eb" opacity="0.7"/>
<circle cx="710.8" cy="205.04999999999995" r="3.5" fill="#2563eb" opacity="0.7"/>
<circle cx="638.0499999999998" cy="171.75" r="3.5" fill="#2563eb" opacity="0.7"/>
<circle cx="822.3499999999997" cy="169.9000000000001" r="3.5" fill="#2563eb" opacity="0.7"/>
<circle cx="735.0499999999998" cy="227.25000000000003" r="3.5" fill="#2563eb" opacity="0.7"/>
<circle cx="817.5" cy="229.0999999999999" r="3.5" fill="#2563eb" opacity="0.7"/>
<circle cx="575.0" cy="245.75" r="3.5" fill="#2563eb" opacity="0.7"/>
<circle cx="807.7999999999998" cy="134.75" r="3.5" fill="#2563eb" opacity="0.7"/>
<circle cx="487.70000000000016" cy="169.9000000000001" r="3.5" fill="#2563eb" opacity="0.7"/>
<circle cx="749.5999999999997" cy="219.84999999999988" r="3.5" fill="#2563eb" opacity="0.7"/>
<circle cx="788.4000000000003" cy="160.65000000000015" r="3.5" fill="#2563eb" opacity="0.7"/>
<circle cx="613.7999999999998" cy="253.15000000000012" r="3.5" fill="#2563eb" opacity="0.7"/>
<circle cx="807.7999999999998" cy="229.0999999999999" r="3.5" fill="#2563eb" opacity="0.7"/>
<circle cx="793.25" cy="171.75" r="3.5" fill="#2563eb" opacity="0.7"/>
<circle cx="594.4000000000002" cy="158.79999999999995" r="3.5" fill="#2563eb" opacity="0.7"/>
<circle cx="696.25" cy="216.1500000000001" r="3.5" fill="#2563eb" opacity="0.7"/>
<circle cx="657.4500000000002" cy="266.0999999999999" r="3.5" fill="#2563eb" opacity="0.7"/>
<circle cx="613.7999999999998" cy="168.04999999999995" r="3.5" fill="#2563eb" opacity="0.7"/>
<circle cx="710.8" cy="175.45000000000005" r="3.5" fill="#2563eb" opacity="0.7"/>
<circle cx="584.7" cy="160.65000000000015" r="3.5" fill="#2563eb" opacity="0.7"/>
<circle cx="638.0499999999998" cy="229.0999999999999" r="3.5" fill="#2563eb" opacity="0.7"/>
<circle cx="701.0999999999997" cy="171.75" r="3.5" fill="#2563eb" opacity="0.7"/>
<circle cx="579.8499999999997" cy="212.45000000000005" r="3.5" fill="#2563eb" opacity="0.7"/>
<circle cx="701.0999999999997" cy="162.5" r="3.5" fill="#2563eb" opacity="0.7"/>
<circle cx="744.75" cy="227.25000000000003" r="3.5" fill="#2563eb" opacity="0.7"/>
<circle cx="754.4500000000002" cy="134.75" r="3.5" fill="#2563eb" opacity="0.7"/>
<circle cx="739.9000000000002" cy="175.45000000000005" r="3.5" fill="#2563eb" opacity="0.7"/>
<circle cx="492.5499999999999" cy="266.0999999999999" r="3.5" fill="#2563eb" opacity="0.7"/>
<circle cx="541.0499999999998" cy="181.0" r="3.5" fill="#2563eb" opacity="0.7"/>
<circle cx="705.9500000000002" cy="175.45000000000005" r="3.5" fill="#2563eb" opacity="0.7"/>
<circle cx="730.2000000000002" cy="175.45000000000005" r="3.5" fill="#2563eb" opacity="0.7"/>
<circle cx="710.8" cy="229.0999999999999" r="3.5" fill="#2563eb" opacity="0.7"/>
<circle cx="662.2999999999998" cy="197.65000000000012" r="3.5" fill="#2563eb" opacity="0.7"/>
<circle cx="633.2000000000002" cy="171.75" r="3.5" fill="#2563eb" opacity="0.7"/>
<circle cx="705.9500000000002" cy="192.0999999999999" r="3.5" fill="#2563eb" opacity="0.7"/>
<circle cx="570.1500000000003" cy="234.6500000000001" r="3.5" fill="#2563eb" opacity="0.7"/>
<circle cx="667.1500000000003" cy="203.20000000000005" r="3.5" fill="#2563eb" opacity="0.7"/>
<circle cx="633.2000000000002" cy="205.04999999999995" r="3.5" fill="#2563eb" opacity="0.7"/>
<circle cx="662.2999999999998" cy="236.49999999999997" r="3.5" fill="#2563eb" opacity="0.7"/>
<circle cx="545.9000000000003" cy="227.25000000000003" r="3.5" fill="#2563eb" opacity="0.7"/>
<circle cx="866.0" cy="171.75" r="3.5" fill="#2563eb" opacity="0.7"/>
<circle cx="657.4500000000002" cy="266.0999999999999" r="3.5" fill="#2563eb" opacity="0.7"/>
<circle cx="565.3" cy="210.59999999999988" r="3.5" fill="#2563eb" opacity="0.7"/>
<circle cx="749.5999999999997" cy="227.25000000000003" r="3.5" fill="#2563eb" opacity="0.7"/>
<circle cx="604.0999999999997" cy="192.0999999999999" r="3.5" fill="#2563eb" opacity="0.7"/>
<circle cx="458.59999999999974" cy="160.65000000000015" r="3.5" fill="#2563eb" opacity="0.7"/>
<circle cx="676.8499999999998" cy="227.25000000000003" r="3.5" fill="#2563eb" opacity="0.7"/>
<circle cx="647.75" cy="169.9000000000001" r="3.5" fill="#2563eb" opacity="0.7"/>
<circle cx="647.75" cy="181.0" r="3.5" fill="#2563eb" opacity="0.7"/>
<circle cx="691.4000000000003" cy="218.0" r="3.5" fill="#2563eb" opacity="0.7"/>
<circle cx="802.95" cy="162.5" r="3.5" fill="#2563eb" opacity="0.7"/>
<circle cx="565.3" cy="179.1500000000001" r="3.5" fill="#2563eb" opacity="0.7"/>
<circle cx="739.9000000000002" cy="264.25" r="3.5" fill="#2563eb" opacity="0.7"/>
<circle cx="478.0" cy="229.0999999999999" r="3.5" fill="#2563eb" opacity="0.7"/>
<circle cx="681.7" cy="205.04999999999995" r="3.5" fill="#2563eb" opacity="0.7"/>
<circle cx="676.8499999999998" cy="175.45000000000005" r="3.5" fill="#2563eb" opacity="0.7"/>
<circle cx="870.8499999999997" cy="430.75" r="3.5" fill="#2563eb" opacity="0.7"/>
<circle cx="584.7" cy="229.0999999999999" r="3.5" fill="#2563eb" opacity="0.7"/>
<circle cx="400.40000000000026" cy="266.0999999999999" r="3.5" fill="#2563eb" opacity="0.7"/>
<circle cx="705.9500000000002" cy="175.45000000000005" r="3.5" fill="#2563eb" opacity="0.7"/>
<circle cx="769.0" cy="234.6500000000001" r="3.5" fill="#2563eb" opacity="0.7"/>
<circle cx="681.7" cy="269.79999999999995" r="3.5" fill="#2563eb" opacity="0.7"/>
<circle cx="691.4000000000003" cy="175.45000000000005" r="3.5" fill="#2563eb" opacity="0.7"/>
<circle cx="754.4500000000002" cy="229.0999999999999" r="3.5" fill="#2563eb" opacity="0.7"/>
<circle cx="579.8499999999997" cy="212.45000000000005" r="3.5" fill="#2563eb" opacity="0.7"/>
<circle cx="579.8499999999997" cy="155.0999999999999" r="3.5" fill="#2563eb" opacity="0.7"/>
<circle cx="793.25" cy="162.5" r="3.5" fill="#2563eb" opacity="0.7"/>
<circle cx="647.75" cy="171.75" r="3.5" fill="#2563eb" opacity="0.7"/>
<circle cx="642.9000000000003" cy="245.75" r="3.5" fill="#2563eb" opacity="0.7"/>
<circle cx="618.6500000000002" cy="216.1500000000001" r="3.5" fill="#2563eb" opacity="0.7"/>
<circle cx="705.9500000000002" cy="234.6500000000001" r="3.5" fill="#2563eb" opacity="0.7"/>
<circle cx="836.9000000000002" cy="162.5" r="3.5" fill="#2563eb" opacity="0.7"/>
<circle cx="691.4000000000003" cy="269.79999999999995" r="3.5" fill="#2563eb" opacity="0.7"/>
<circle cx="798.0999999999998" cy="264.25" r="3.5" fill="#2563eb" opacity="0.7"/>
<circle cx="705.9500000000002" cy="227.25000000000003" r="3.5" fill="#2563eb" opacity="0.7"/>
<circle cx="730.2000000000002" cy="234.6500000000001" r="3.5" fill="#2563eb" opacity="0.7"/>
<circle cx="667.1500000000003" cy="266.0999999999999" r="3.5" fill="#2563eb" opacity="0.7"/>
<circle cx="667.1500000000003" cy="162.5" r="3.5" fill="#2563eb" opacity="0.7"/>
<circle cx="638.0499999999998" cy="199.5" r="3.5" fill="#2563eb" opacity="0.7"/>
<circle cx="657.4500000000002" cy="134.75" r="3.5" fill="#2563eb" opacity="0.7"/>
<circle cx="807.7999999999998" cy="164.34999999999985" r="3.5" fill="#2563eb" opacity="0.7"/>
<circle cx="647.75" cy="240.20000000000007" r="3.5" fill="#2563eb" opacity="0.7"/>
<circle cx="681.7" cy="214.29999999999995" r="3.5" fill="#2563eb" opacity="0.7"/>
<circle cx="521.6500000000003" cy="169.9000000000001" r="3.5" fill="#2563eb" opacity="0.7"/>
<circle cx="793.25" cy="227.25000000000003" r="3.5" fill="#2563eb" opacity="0.7"/>
<circle cx="652.5999999999998" cy="171.75" r="3.5" fill="#2563eb" opacity="0.7"/>
<circle cx="560.4500000000002" cy="256.8499999999999" r="3.5" fill="#2563eb" opacity="0.7"/>
<circle cx="686.5499999999998" cy="262.4000000000001" r="3.5" fill="#2563eb" opacity="0.7"/>
<circle cx="890.25" cy="227.25000000000003" r="3.5" fill="#2563eb" opacity="0.7"/>
<circle cx="550.75" cy="229.0999999999999" r="3.5" fill="#2563eb" opacity="0.7"/>
<circle cx="710.8" cy="266.0999999999999" r="3.5" fill="#2563eb" opacity="0.7"/>
<circle cx="526.5" cy="169.9000000000001" r="3.5" fill="#2563eb" opacity="0.7"/>
<circle cx="613.7999999999998" cy="205.04999999999995" r="3.5" fill="#2563eb" opacity="0.7"/>
<circle cx="710.8" cy="197.65000000000012" r="3.5" fill="#2563eb" opacity="0.7"/>
<circle cx="507.09999999999974" cy="175.45000000000005" r="3.5" fill="#2563eb" opacity="0.7"/>
<circle cx="473.15000000000026" cy="193.95000000000007" r="3.5" fill="#2563eb" opacity="0.7"/>
<circle cx="628.3499999999997" cy="266.0999999999999" r="3.5" fill="#2563eb" opacity="0.7"/>
<circle cx="545.9000000000003" cy="256.8499999999999" r="3.5" fill="#2563eb" opacity="0.7"/>
<circle cx="638.0499999999998" cy="214.29999999999995" r="3.5" fill="#2563eb" opacity="0.7"/>
<circle cx="642.9000000000003" cy="192.0999999999999" r="3.5" fill="#2563eb" opacity="0.7"/>
<circle cx="725.3499999999997" cy="151.4000000000001" r="3.5" fill="#2563eb" opacity="0.7"/>
<circle cx="672.0" cy="169.9000000000001" r="3.5" fill="#2563eb" opacity="0.7"/>
<circle cx="715.6500000000002" cy="271.6500000000001" r="3.5" fill="#2563eb" opacity="0.7"/>
<circle cx="594.4000000000002" cy="179.1500000000001" r="3.5" fill="#2563eb" opacity="0.7"/>
<circle cx="541.0499999999998" cy="155.0999999999999" r="3.5" fill="#2563eb" opacity="0.7"/>
<circle cx="623.5" cy="203.20000000000005" r="3.5" fill="#2563eb" opacity="0.7"/>
<circle cx="487.70000000000016" cy="236.49999999999997" r="3.5" fill="#2563eb" opacity="0.7"/>
<circle cx="735.0499999999998" cy="192.0999999999999" r="3.5" fill="#2563eb" opacity="0.7"/>
<circle cx="613.7999999999998" cy="216.1500000000001" r="3.5" fill="#2563eb" opacity="0.7"/>
<circle cx="657.4500000000002" cy="216.1500000000001" r="3.5" fill="#2563eb" opacity="0.7"/>
<circle cx="827.2000000000002" cy="134.75" r="3.5" fill="#2563eb" opacity="0.7"/>
<circle cx="638.0499999999998" cy="266.0999999999999" r="3.5" fill="#2563eb" opacity="0.7"/>
<circle cx="739.9000000000002" cy="206.90000000000012" r="3.5" fill="#2563eb" opacity="0.7"/>
<circle cx="623.5" cy="266.0999999999999" r="3.5" fill="#2563eb" opacity="0.7"/>
<circle cx="439.20000000000016" cy="171.75" r="3.5" fill="#2563eb" opacity="0.7"/>
<circle cx="735.0499999999998" cy="430.75" r="3.5" fill="#2563eb" opacity="0.7"/>
<circle cx="686.5499999999998" cy="212.45000000000005" r="3.5" fill="#2563eb" opacity="0.7"/>
<circle cx="778.7000000000002" cy="212.45000000000005" r="3.5" fill="#2563eb" opacity="0.7"/>
<circle cx="739.9000000000002" cy="175.45000000000005" r="3.5" fill="#2563eb" opacity="0.7"/>
<circle cx="686.5499999999998" cy="181.0" r="3.5" fill="#2563eb" opacity="0.7"/>
<circle cx="550.75" cy="218.0" r="3.5" fill="#2563eb" opacity="0.7"/>
<circle cx="686.5499999999998" cy="264.25" r="3.5" fill="#2563eb" opacity="0.7"/>
<circle cx="681.7" cy="216.1500000000001" r="3.5" fill="#2563eb" opacity="0.7"/>
<circle cx="691.4000000000003" cy="158.79999999999995" r="3.5" fill="#2563eb" opacity="0.7"/>
<circle cx="652.5999999999998" cy="181.0" r="3.5" fill="#2563eb" opacity="0.7"/>
<circle cx="565.3" cy="247.5999999999999" r="3.5" fill="#2563eb" opacity="0.7"/>
<circle cx="739.9000000000002" cy="134.75" r="3.5" fill="#2563eb" opacity="0.7"/>
<circle cx="633.2000000000002" cy="229.0999999999999" r="3.5" fill="#2563eb" opacity="0.7"/>
<circle cx="618.6500000000002" cy="171.75" r="3.5" fill="#2563eb" opacity="0.7"/>
<circle cx="633.2000000000002" cy="155.0999999999999" r="3.5" fill="#2563eb" opacity="0.7"/>
<circle cx="759.2999999999998" cy="293.8499999999999" r="3.5" fill="#2563eb" opacity="0.7"/>
<circle cx="705.9500000000002" cy="188.4000000000001" r="3.5" fill="#2563eb" opacity="0.7"/>
<circle cx="570.1500000000003" cy="229.0999999999999" r="3.5" fill="#2563eb" opacity="0.7"/>
<circle cx="652.5999999999998" cy="229.0999999999999" r="3.5" fill="#2563eb" opacity="0.7"/>
<circle cx="667.1500000000003" cy="214.29999999999995" r="3.5" fill="#2563eb" opacity="0.7"/>
<circle cx="667.1500000000003" cy="219.84999999999988" r="3.5" fill="#2563eb" opacity="0.7"/>
<circle cx="696.25" cy="181.0" r="3.5" fill="#2563eb" opacity="0.7"/>
<circle cx="531.3499999999997" cy="266.0999999999999" r="3.5" fill="#2563eb" opacity="0.7"/>
<circle cx="875.7000000000002" cy="162.5" r="3.5" fill="#2563eb" opacity="0.7"/>
<circle cx="691.4000000000003" cy="234.6500000000001" r="3.5" fill="#2563eb" opacity="0.7"/>
<circle cx="589.55" cy="430.75" r="3.5" fill="#2563eb" opacity="0.7"/>
<circle cx="769.0" cy="216.1500000000001" r="3.5" fill="#2563eb" opacity="0.7"/>
<circle cx="575.0" cy="171.75" r="3.5" fill="#2563eb" opacity="0.7"/>
<circle cx="589.55" cy="158.79999999999995" r="3.5" fill="#2563eb" opacity="0.7"/>
<circle cx="769.0" cy="164.34999999999985" r="3.5" fill="#2563eb" opacity="0.7"/>
<circle cx="691.4000000000003" cy="179.1500000000001" r="3.5" fill="#2563eb" opacity="0.7"/>
<circle cx="672.0" cy="155.0999999999999" r="3.5" fill="#2563eb" opacity="0.7"/>
<circle cx="657.4500000000002" cy="430.75" r="3.5" fill="#2563eb" opacity="0.7"/>
<circle cx="502.25" cy="169.9000000000001" r="3.5" fill="#2563eb" opacity="0.7"/>
<circle cx="676.8499999999998" cy="269.79999999999995" r="3.5" fill="#2563eb" opacity="0.7"/>
<circle cx="710.8" cy="229.0999999999999" r="3.5" fill="#2563eb" opacity="0.7"/>
<circle cx="720.5" cy="247.5999999999999" r="3.5" fill="#2563eb" opacity="0.7"/>
<circle cx="739.9000000000002" cy="175.45000000000005" r="3.5" fill="#2563eb" opacity="0.7"/>
<circle cx="895.0999999999998" cy="269.79999999999995" r="3.5" fill="#2563eb" opacity="0.7"/>
<circle cx="584.7" cy="214.29999999999995" r="3.5" fill="#2563eb" opacity="0.7"/>
<circle cx="672.0" cy="221.70000000000005" r="3.5" fill="#2563eb" opacity="0.7"/>
<circle cx="478.0" cy="223.54999999999993" r="3.5" fill="#2563eb" opacity="0.7"/>
<circle cx="710.8" cy="266.0999999999999" r="3.5" fill="#2563eb" opacity="0.7"/>
<circle cx="662.2999999999998" cy="188.4000000000001" r="3.5" fill="#2563eb" opacity="0.7"/>
<circle cx="657.4500000000002" cy="208.75" r="3.5" fill="#2563eb" opacity="0.7"/>
<circle cx="754.4500000000002" cy="214.29999999999995" r="3.5" fill="#2563eb" opacity="0.7"/>
<circle cx="720.5" cy="227.25000000000003" r="3.5" fill="#2563eb" opacity="0.7"/>
<circle cx="502.25" cy="175.45000000000005" r="3.5" fill="#2563eb" opacity="0.7"/>
<circle cx="672.0" cy="227.25000000000003" r="3.5" fill="#2563eb" opacity="0.7"/>
<circle cx="667.1500000000003" cy="245.75" r="3.5" fill="#2563eb" opacity="0.7"/>
<circle cx="739.9000000000002" cy="205.04999999999995" r="3.5" fill="#2563eb" opacity="0.7"/>
<circle cx="744.75" cy="218.0" r="3.5" fill="#2563eb" opacity="0.7"/>
<circle cx="575.0" cy="201.3499999999999" r="3.5" fill="#2563eb" opacity="0.7"/>
<circle cx="560.4500000000002" cy="210.59999999999988" r="3.5" fill="#2563eb" opacity="0.7"/>
<circle cx="623.5" cy="240.20000000000007" r="3.5" fill="#2563eb" opacity="0.7"/>
<circle cx="575.0" cy="127.34999999999991" r="3.5" fill="#2563eb" opacity="0.7"/>
<circle cx="633.2000000000002" cy="127.34999999999991" r="3.5" fill="#2563eb" opacity="0.7"/>
<circle cx="672.0" cy="188.4000000000001" r="3.5" fill="#2563eb" opacity="0.7"/>
<circle cx="633.2000000000002" cy="229.0999999999999" r="3.5" fill="#2563eb" opacity="0.7"/>
<circle cx="686.5499999999998" cy="247.5999999999999" r="3.5" fill="#2563eb" opacity="0.7"/>
<circle cx="642.9000000000003" cy="164.34999999999985" r="3.5" fill="#2563eb" opacity="0.7"/>
<circle cx="482.8499999999997" cy="269.79999999999995" r="3.5" fill="#2563eb" opacity="0.7"/>
<circle cx="657.4500000000002" cy="210.59999999999988" r="3.5" fill="#2563eb" opacity="0.7"/>
<circle cx="584.7" cy="160.65000000000015" r="3.5" fill="#2563eb" opacity="0.7"/>
<circle cx="473.15000000000026" cy="175.45000000000005" r="3.5" fill="#2563eb" opacity="0.7"/>
<circle cx="817.5" cy="188.4000000000001" r="3.5" fill="#2563eb" opacity="0.7"/>
<circle cx="725.3499999999997" cy="134.75" r="3.5" fill="#2563eb" opacity="0.7"/>
<circle cx="672.0" cy="134.75" r="3.5" fill="#2563eb" opacity="0.7"/>
<circle cx="739.9000000000002" cy="229.0999999999999" r="3.5" fill="#2563eb" opacity="0.7"/>
<circle cx="545.9000000000003" cy="227.25000000000003" r="3.5" fill="#2563eb" opacity="0.7"/>
<circle cx="604.0999999999997" cy="247.5999999999999" r="3.5" fill="#2563eb" opacity="0.7"/>
<circle cx="691.4000000000003" cy="229.0999999999999" r="3.5" fill="#2563eb" opacity="0.7"/>
<circle cx="754.4500000000002" cy="162.5" r="3.5" fill="#2563eb" opacity="0.7"/>
<circle cx="662.2999999999998" cy="266.0999999999999" r="3.5" fill="#2563eb" opacity="0.7"/>
<circle cx="657.4500000000002" cy="240.20000000000007" r="3.5" fill="#2563eb" opacity="0.7"/>
<circle cx="783.5499999999998" cy="197.65000000000012" r="3.5" fill="#2563eb" opacity="0.7"/>
<circle cx="555.5999999999997" cy="430.75" r="3.5" fill="#2563eb" opacity="0.7"/>
<circle cx="720.5" cy="293.8499999999999" r="3.5" fill="#2563eb" opacity="0.7"/>
<circle cx="613.7999999999998" cy="210.59999999999988" r="3.5" fill="#2563eb" opacity="0.7"/>
<circle cx="754.4500000000002" cy="293.8499999999999" r="3.5" fill="#2563eb" opacity="0.7"/>
<circle cx="662.2999999999998" cy="199.5" r="3.5" fill="#2563eb" opacity="0.7"/>
<circle cx="705.9500000000002" cy="138.45000000000005" r="3.5" fill="#2563eb" opacity="0.7"/>
<circle cx="570.1500000000003" cy="175.45000000000005" r="3.5" fill="#2563eb" opacity="0.7"/>
<circle cx="696.25" cy="205.04999999999995" r="3.5" fill="#2563eb" opacity="0.7"/>
<circle cx="705.9500000000002" cy="271.6500000000001" r="3.5" fill="#2563eb" opacity="0.7"/>
<circle cx="691.4000000000003" cy="256.8499999999999" r="3.5" fill="#2563eb" opacity="0.7"/>
<circle cx="560.4500000000002" cy="188.4000000000001" r="3.5" fill="#2563eb" opacity="0.7"/>
<circle cx="550.75" cy="214.29999999999995" r="3.5" fill="#2563eb" opacity="0.7"/>
<circle cx="802.95" cy="138.45000000000005" r="3.5" fill="#2563eb" opacity="0.7"/>
<circle cx="555.5999999999997" cy="221.70000000000005" r="3.5" fill="#2563eb" opacity="0.7"/>
<circle cx="511.95000000000016" cy="212.45000000000005" r="3.5" fill="#2563eb" opacity="0.7"/>
<circle cx="570.1500000000003" cy="193.95000000000007" r="3.5" fill="#2563eb" opacity="0.7"/>
<circle cx="662.2999999999998" cy="238.3499999999999" r="3.5" fill="#2563eb" opacity="0.7"/>
<circle cx="545.9000000000003" cy="256.8499999999999" r="3.5" fill="#2563eb" opacity="0.7"/>
<circle cx="744.75" cy="162.5" r="3.5" fill="#2563eb" opacity="0.7"/>
<circle cx="652.5999999999998" cy="212.45000000000005" r="3.5" fill="#2563eb" opacity="0.7"/>
<circle cx="633.2000000000002" cy="197.65000000000012" r="3.5" fill="#2563eb" opacity="0.7"/>
<circle cx="744.75" cy="229.0999999999999" r="3.5" fill="#2563eb" opacity="0.7"/>
<circle cx="657.4500000000002" cy="164.34999999999985" r="3.5" fill="#2563eb" opacity="0.7"/>
<circle cx="856.2999999999998" cy="229.0999999999999" r="3.5" fill="#2563eb" opacity="0.7"/>
<circle cx="667.1500000000003" cy="218.0" r="3.5" fill="#2563eb" opacity="0.7"/>
<circle cx="696.25" cy="175.45000000000005" r="3.5" fill="#2563eb" opacity="0.7"/>
<circle cx="589.55" cy="210.59999999999988" r="3.5" fill="#2563eb" opacity="0.7"/>
<circle cx="555.5999999999997" cy="223.54999999999993" r="3.5" fill="#2563eb" opacity="0.7"/>
<circle cx="628.3499999999997" cy="201.3499999999999" r="3.5" fill="#2563eb" opacity="0.7"/>
<circle cx="710.8" cy="175.45000000000005" r="3.5" fill="#2563eb" opacity="0.7"/>
<circle cx="764.1500000000003" cy="227.25000000000003" r="3.5" fill="#2563eb" opacity="0.7"/>
<circle cx="754.4500000000002" cy="229.0999999999999" r="3.5" fill="#2563eb" opacity="0.7"/>
<circle cx="672.0" cy="138.45000000000005" r="3.5" fill="#2563eb" opacity="0.7"/>
<circle cx="691.4000000000003" cy="256.8499999999999" r="3.5" fill="#2563eb" opacity="0.7"/>
<circle cx="652.5999999999998" cy="168.04999999999995" r="3.5" fill="#2563eb" opacity="0.7"/>
<circle cx="511.95000000000016" cy="266.0999999999999" r="3.5" fill="#2563eb" opacity="0.7"/>
<circle cx="608.9500000000002" cy="175.45000000000005" r="3.5" fill="#2563eb" opacity="0.7"/>
<circle cx="696.25" cy="206.90000000000012" r="3.5" fill="#2563eb" opacity="0.7"/>
<circle cx="599.25" cy="138.45000000000005" r="3.5" fill="#2563eb" opacity="0.7"/>
<circle cx="453.75" cy="210.59999999999988" r="3.5" fill="#2563eb" opacity="0.7"/>
<circle cx="749.5999999999997" cy="162.5" r="3.5" fill="#2563eb" opacity="0.7"/>
<circle cx="696.25" cy="229.0999999999999" r="3.5" fill="#2563eb" opacity="0.7"/>
<circle cx="604.0999999999997" cy="227.25000000000003" r="3.5" fill="#2563eb" opacity="0.7"/>
<circle cx="710.8" cy="236.49999999999997" r="3.5" fill="#2563eb" opacity="0.7"/>
<circle cx="730.2000000000002" cy="162.5" r="3.5" fill="#2563eb" opacity="0.7"/>
<circle cx="735.0499999999998" cy="169.9000000000001" r="3.5" fill="#2563eb" opacity="0.7"/>
<circle cx="608.9500000000002" cy="181.0" r="3.5" fill="#2563eb" opacity="0.7"/>
<circle cx="638.0499999999998" cy="214.29999999999995" r="3.5" fill="#2563eb" opacity="0.7"/>
<circle cx="608.9500000000002" cy="240.20000000000007" r="3.5" fill="#2563eb" opacity="0.7"/>
<circle cx="681.7" cy="175.45000000000005" r="3.5" fill="#2563eb" opacity="0.7"/>
<circle cx="594.4000000000002" cy="221.70000000000005" r="3.5" fill="#2563eb" opacity="0.7"/>
<circle cx="633.2000000000002" cy="192.0999999999999" r="3.5" fill="#2563eb" opacity="0.7"/>
<circle cx="759.2999999999998" cy="192.0999999999999" r="3.5" fill="#2563eb" opacity="0.7"/>
<circle cx="497.40000000000026" cy="269.79999999999995" r="3.5" fill="#2563eb" opacity="0.7"/>
<circle cx="720.5" cy="184.70000000000007" r="3.5" fill="#2563eb" opacity="0.7"/>
<circle cx="579.8499999999997" cy="164.34999999999985" r="3.5" fill="#2563eb" opacity="0.7"/>
<circle cx="531.3499999999997" cy="203.20000000000005" r="3.5" fill="#2563eb" opacity="0.7"/>
<circle cx="458.59999999999974" cy="164.34999999999985" r="3.5" fill="#2563eb" opacity="0.7"/>
<circle cx="511.95000000000016" cy="266.0999999999999" r="3.5" fill="#2563eb" opacity="0.7"/>
<circle cx="691.4000000000003" cy="232.79999999999993" r="3.5" fill="#2563eb" opacity="0.7"/>
<circle cx="710.8" cy="229.0999999999999" r="3.5" fill="#2563eb" opacity="0.7"/>
<circle cx="584.7" cy="169.9000000000001" r="3.5" fill="#2563eb" opacity="0.7"/>
<circle cx="618.6500000000002" cy="155.0999999999999" r="3.5" fill="#2563eb" opacity="0.7"/>
<circle cx="657.4500000000002" cy="169.9000000000001" r="3.5" fill="#2563eb" opacity="0.7"/>
<circle cx="681.7" cy="162.5" r="3.5" fill="#2563eb" opacity="0.7"/>
<circle cx="822.3499999999997" cy="192.0999999999999" r="3.5" fill="#2563eb" opacity="0.7"/>
<circle cx="492.5499999999999" cy="134.75" r="3.5" fill="#2563eb" opacity="0.7"/>
<circle cx="739.9000000000002" cy="219.84999999999988" r="3.5" fill="#2563eb" opacity="0.7"/>
<circle cx="691.4000000000003" cy="240.20000000000007" r="3.5" fill="#2563eb" opacity="0.7"/>
<circle cx="759.2999999999998" cy="430.75" r="3.5" fill="#2563eb" opacity="0.7"/>
<circle cx="783.5499999999998" cy="430.75" r="3.5" fill="#2563eb" opacity="0.7"/>
<circle cx="885.4000000000003" cy="162.5" r="3.5" fill="#2563eb" opacity="0.7"/>
<circle cx="778.7000000000002" cy="175.45000000000005" r="3.5" fill="#2563eb" opacity="0.7"/>
<circle cx="487.70000000000016" cy="430.75" r="3.5" fill="#2563eb" opacity="0.7"/>
<circle cx="735.0499999999998" cy="229.0999999999999" r="3.5" fill="#2563eb" opacity="0.7"/>
<circle cx="764.1500000000003" cy="197.65000000000012" r="3.5" fill="#2563eb" opacity="0.7"/>
<circle cx="769.0" cy="192.0999999999999" r="3.5" fill="#2563eb" opacity="0.7"/>
<circle cx="647.75" cy="181.0" r="3.5" fill="#2563eb" opacity="0.7"/>
<circle cx="652.5999999999998" cy="179.1500000000001" r="3.5" fill="#2563eb" opacity="0.7"/>
<circle cx="705.9500000000002" cy="151.4000000000001" r="3.5" fill="#2563eb" opacity="0.7"/>
<circle cx="618.6500000000002" cy="160.65000000000015" r="3.5" fill="#2563eb" opacity="0.7"/>
<circle cx="773.8499999999998" cy="430.75" r="3.5" fill="#2563eb" opacity="0.7"/>
<circle cx="744.75" cy="175.45000000000005" r="3.5" fill="#2563eb" opacity="0.7"/>
<circle cx="541.0499999999998" cy="127.34999999999991" r="3.5" fill="#2563eb" opacity="0.7"/>
<circle cx="667.1500000000003" cy="218.0" r="3.5" fill="#2563eb" opacity="0.7"/>
<circle cx="628.3499999999997" cy="216.1500000000001" r="3.5" fill="#2563eb" opacity="0.7"/>
<circle cx="608.9500000000002" cy="293.8499999999999" r="3.5" fill="#2563eb" opacity="0.7"/>
<circle cx="594.4000000000002" cy="232.79999999999993" r="3.5" fill="#2563eb" opacity="0.7"/>
<circle cx="832.05" cy="175.45000000000005" r="3.5" fill="#2563eb" opacity="0.7"/>
<circle cx="589.55" cy="256.8499999999999" r="3.5" fill="#2563eb" opacity="0.7"/>
<circle cx="642.9000000000003" cy="162.5" r="3.5" fill="#2563eb" opacity="0.7"/>
<circle cx="725.3499999999997" cy="238.3499999999999" r="3.5" fill="#2563eb" opacity="0.7"/>
<circle cx="720.5" cy="164.34999999999985" r="3.5" fill="#2563eb" opacity="0.7"/>
<circle cx="715.6500000000002" cy="262.4000000000001" r="3.5" fill="#2563eb" opacity="0.7"/>
<circle cx="686.5499999999998" cy="229.0999999999999" r="3.5" fill="#2563eb" opacity="0.7"/>
<circle cx="628.3499999999997" cy="232.79999999999993" r="3.5" fill="#2563eb" opacity="0.7"/>
<circle cx="579.8499999999997" cy="227.25000000000003" r="3.5" fill="#2563eb" opacity="0.7"/>
<circle cx="608.9500000000002" cy="430.75" r="3.5" fill="#2563eb" opacity="0.7"/>
<circle cx="613.7999999999998" cy="164.34999999999985" r="3.5" fill="#2563eb" opacity="0.7"/>
<circle cx="550.75" cy="155.0999999999999" r="3.5" fill="#2563eb" opacity="0.7"/>
<circle cx="691.4000000000003" cy="201.3499999999999" r="3.5" fill="#2563eb" opacity="0.7"/>
<circle cx="633.2000000000002" cy="193.95000000000007" r="3.5" fill="#2563eb" opacity="0.7"/>
<circle cx="783.5499999999998" cy="208.75" r="3.5" fill="#2563eb" opacity="0.7"/>
<circle cx="628.3499999999997" cy="203.20000000000005" r="3.5" fill="#2563eb" opacity="0.7"/>
<circle cx="725.3499999999997" cy="175.45000000000005" r="3.5" fill="#2563eb" opacity="0.7"/>
<circle cx="744.75" cy="162.5" r="3.5" fill="#2563eb" opacity="0.7"/>
<circle cx="657.4500000000002" cy="227.25000000000003" r="3.5" fill="#2563eb" opacity="0.7"/>
<circle cx="642.9000000000003" cy="430.75" r="3.5" fill="#2563eb" opacity="0.7"/>
<circle cx="769.0" cy="179.1500000000001" r="3.5" fill="#2563eb" opacity="0.7"/>
<circle cx="739.9000000000002" cy="262.4000000000001" r="3.5" fill="#2563eb" opacity="0.7"/>
<circle cx="681.7" cy="293.8499999999999" r="3.5" fill="#2563eb" opacity="0.7"/>
<circle cx="749.5999999999997" cy="169.9000000000001" r="3.5" fill="#2563eb" opacity="0.7"/>
<circle cx="749.5999999999997" cy="162.5" r="3.5" fill="#2563eb" opacity="0.7"/>
<circle cx="744.75" cy="216.1500000000001" r="3.5" fill="#2563eb" opacity="0.7"/>
<circle cx="701.0999999999997" cy="127.34999999999991" r="3.5" fill="#2563eb" opacity="0.7"/>
<circle cx="618.6500000000002" cy="205.04999999999995" r="3.5" fill="#2563eb" opacity="0.7"/>
<circle cx="710.8" cy="205.04999999999995" r="3.5" fill="#2563eb" opacity="0.7"/>
<circle cx="628.3499999999997" cy="151.4000000000001" r="3.5" fill="#2563eb" opacity="0.7"/>
<circle cx="701.0999999999997" cy="175.45000000000005" r="3.5" fill="#2563eb" opacity="0.7"/>
<circle cx="516.7999999999998" cy="266.0999999999999" r="3.5" fill="#2563eb" opacity="0.7"/>
<circle cx="604.0999999999997" cy="221.70000000000005" r="3.5" fill="#2563eb" opacity="0.7"/>
<circle cx="511.95000000000016" cy="227.25000000000003" r="3.5" fill="#2563eb" opacity="0.7"/>
<circle cx="521.6500000000003" cy="266.0999999999999" r="3.5" fill="#2563eb" opacity="0.7"/>
<circle cx="492.5499999999999" cy="227.25000000000003" r="3.5" fill="#2563eb" opacity="0.7"/>
<circle cx="633.2000000000002" cy="164.34999999999985" r="3.5" fill="#2563eb" opacity="0.7"/>
<circle cx="604.0999999999997" cy="293.8499999999999" r="3.5" fill="#2563eb" opacity="0.7"/>
<circle cx="667.1500000000003" cy="293.8499999999999" r="3.5" fill="#2563eb" opacity="0.7"/>
<circle cx="705.9500000000002" cy="169.9000000000001" r="3.5" fill="#2563eb" opacity="0.7"/>
<circle cx="555.5999999999997" cy="223.54999999999993" r="3.5" fill="#2563eb" opacity="0.7"/>
<circle cx="672.0" cy="206.90000000000012" r="3.5" fill="#2563eb" opacity="0.7"/>
<circle cx="647.75" cy="218.0" r="3.5" fill="#2563eb" opacity="0.7"/>
<circle cx="468.29999999999984" cy="175.45000000000005" r="3.5" fill="#2563eb" opacity="0.7"/>
<circle cx="584.7" cy="227.25000000000003" r="3.5" fill="#2563eb" opacity="0.7"/>
<circle cx="521.6500000000003" cy="175.45000000000005" r="3.5" fill="#2563eb" opacity="0.7"/>
<circle cx="759.2999999999998" cy="245.75" r="3.5" fill="#2563eb" opacity="0.7"/>
<circle cx="662.2999999999998" cy="227.25000000000003" r="3.5" fill="#2563eb" opacity="0.7"/>
<circle cx="633.2000000000002" cy="218.0" r="3.5" fill="#2563eb" opacity="0.7"/>
<circle cx="638.0499999999998" cy="205.04999999999995" r="3.5" fill="#2563eb" opacity="0.7"/>
<circle cx="623.5" cy="162.5" r="3.5" fill="#2563eb" opacity="0.7"/>
<circle cx="414.9500000000001" cy="266.0999999999999" r="3.5" fill="#2563eb" opacity="0.7"/>
<circle cx="798.0999999999998" cy="175.45000000000005" r="3.5" fill="#2563eb" opacity="0.7"/>
<circle cx="662.2999999999998" cy="430.75" r="3.5" fill="#2563eb" opacity="0.7"/>
<circle cx="608.9500000000002" cy="160.65000000000015" r="3.5" fill="#2563eb" opacity="0.7"/>
<circle cx="739.9000000000002" cy="229.0999999999999" r="3.5" fill="#2563eb" opacity="0.7"/>
<circle cx="429.5" cy="266.0999999999999" r="3.5" fill="#2563eb" opacity="0.7"/>
<circle cx="759.2999999999998" cy="216.1500000000001" r="3.5" fill="#2563eb" opacity="0.7"/>
<circle cx="638.0499999999998" cy="229.0999999999999" r="3.5" fill="#2563eb" opacity="0.7"/>
<circle cx="667.1500000000003" cy="162.5" r="3.5" fill="#2563eb" opacity="0.7"/>
<circle cx="749.5999999999997" cy="138.45000000000005" r="3.5" fill="#2563eb" opacity="0.7"/>
<circle cx="642.9000000000003" cy="175.45000000000005" r="3.5" fill="#2563eb" opacity="0.7"/>
<circle cx="633.2000000000002" cy="155.0999999999999" r="3.5" fill="#2563eb" opacity="0.7"/>
<circle cx="778.7000000000002" cy="229.0999999999999" r="3.5" fill="#2563eb" opacity="0.7"/>
<circle cx="584.7" cy="175.45000000000005" r="3.5" fill="#2563eb" opacity="0.7"/>
<circle cx="507.09999999999974" cy="214.29999999999995" r="3.5" fill="#2563eb" opacity="0.7"/>
<circle cx="507.09999999999974" cy="181.0" r="3.5" fill="#2563eb" opacity="0.7"/>
<circle cx="618.6500000000002" cy="221.70000000000005" r="3.5" fill="#2563eb" opacity="0.7"/>
<circle cx="662.2999999999998" cy="218.0" r="3.5" fill="#2563eb" opacity="0.7"/>
<circle cx="667.1500000000003" cy="212.45000000000005" r="3.5" fill="#2563eb" opacity="0.7"/>
<circle cx="652.5999999999998" cy="227.25000000000003" r="3.5" fill="#2563eb" opacity="0.7"/>
<circle cx="739.9000000000002" cy="175.45000000000005" r="3.5" fill="#2563eb" opacity="0.7"/>
<circle cx="589.55" cy="169.9000000000001" r="3.5" fill="#2563eb" opacity="0.7"/>
<circle cx="657.4500000000002" cy="134.75" r="3.5" fill="#2563eb" opacity="0.7"/>
<circle cx="681.7" cy="155.0999999999999" r="3.5" fill="#2563eb" opacity="0.7"/>
<circle cx="584.7" cy="240.20000000000007" r="3.5" fill="#2563eb" opacity="0.7"/>
<circle cx="526.5" cy="229.0999999999999" r="3.5" fill="#2563eb" opacity="0.7"/>
<circle cx="710.8" cy="430.75" r="3.5" fill="#2563eb" opacity="0.7"/>
<circle cx="492.5499999999999" cy="229.0999999999999" r="3.5" fill="#2563eb" opacity="0.7"/>
<circle cx="570.1500000000003" cy="234.6500000000001" r="3.5" fill="#2563eb" opacity="0.7"/>
<circle cx="715.6500000000002" cy="266.0999999999999" r="3.5" fill="#2563eb" opacity="0.7"/>
<circle cx="667.1500000000003" cy="266.0999999999999" r="3.5" fill="#2563eb" opacity="0.7"/>
<circle cx="696.25" cy="206.90000000000012" r="3.5" fill="#2563eb" opacity="0.7"/>
<circle cx="783.5499999999998" cy="162.5" r="3.5" fill="#2563eb" opacity="0.7"/>
<circle cx="788.4000000000003" cy="293.8499999999999" r="3.5" fill="#2563eb" opacity="0.7"/>
<circle cx="633.2000000000002" cy="169.9000000000001" r="3.5" fill="#2563eb" opacity="0.7"/>
<circle cx="482.8499999999997" cy="240.20000000000007" r="3.5" fill="#2563eb" opacity="0.7"/>
<circle cx="608.9500000000002" cy="227.25000000000003" r="3.5" fill="#2563eb" opacity="0.7"/>
<circle cx="672.0" cy="179.1500000000001" r="3.5" fill="#2563eb" opacity="0.7"/>
<circle cx="691.4000000000003" cy="236.49999999999997" r="3.5" fill="#2563eb" opacity="0.7"/>
<circle cx="754.4500000000002" cy="155.0999999999999" r="3.5" fill="#2563eb" opacity="0.7"/>
<circle cx="623.5" cy="168.04999999999995" r="3.5" fill="#2563eb" opacity="0.7"/>
<circle cx="608.9500000000002" cy="134.75" r="3.5" fill="#2563eb" opacity="0.7"/>
<circle cx="705.9500000000002" cy="430.75" r="3.5" fill="#2563eb" opacity="0.7"/>
<circle cx="536.2" cy="229.0999999999999" r="3.5" fill="#2563eb" opacity="0.7"/>
<circle cx="715.6500000000002" cy="175.45000000000005" r="3.5" fill="#2563eb" opacity="0.7"/>
<circle cx="798.0999999999998" cy="229.0999999999999" r="3.5" fill="#2563eb" opacity="0.7"/>
<circle cx="575.0" cy="218.0" r="3.5" fill="#2563eb" opacity="0.7"/>
<circle cx="730.2000000000002" cy="138.45000000000005" r="3.5" fill="#2563eb" opacity="0.7"/>
<circle cx="652.5999999999998" cy="216.1500000000001" r="3.5" fill="#2563eb" opacity="0.7"/>
<circle cx="681.7" cy="266.0999999999999" r="3.5" fill="#2563eb" opacity="0.7"/>
<circle cx="686.5499999999998" cy="169.9000000000001" r="3.5" fill="#2563eb" opacity="0.7"/>
<circle cx="642.9000000000003" cy="179.1500000000001" r="3.5" fill="#2563eb" opacity="0.7"/>
<circle cx="545.9000000000003" cy="232.79999999999993" r="3.5" fill="#2563eb" opacity="0.7"/>
<circle cx="836.9000000000002" cy="271.6500000000001" r="3.5" fill="#2563eb" opacity="0.7"/>
<circle cx="890.25" cy="430.75" r="3.5" fill="#2563eb" opacity="0.7"/>
<circle cx="769.0" cy="229.0999999999999" r="3.5" fill="#2563eb" opacity="0.7"/>
<circle cx="652.5999999999998" cy="229.0999999999999" r="3.5" fill="#2563eb" opacity="0.7"/>
<circle cx="589.55" cy="227.25000000000003" r="3.5" fill="#2563eb" opacity="0.7"/>
<circle cx="715.6500000000002" cy="175.45000000000005" r="3.5" fill="#2563eb" opacity="0.7"/>
<circle cx="623.5" cy="219.84999999999988" r="3.5" fill="#2563eb" opacity="0.7"/>
<circle cx="511.95000000000016" cy="214.29999999999995" r="3.5" fill="#2563eb" opacity="0.7"/>
<circle cx="487.70000000000016" cy="430.75" r="3.5" fill="#2563eb" opacity="0.7"/>
<circle cx="657.4500000000002" cy="175.45000000000005" r="3.5" fill="#2563eb" opacity="0.7"/>
<circle cx="599.25" cy="266.0999999999999" r="3.5" fill="#2563eb" opacity="0.7"/>
<circle cx="681.7" cy="247.5999999999999" r="3.5" fill="#2563eb" opacity="0.7"/>
<circle cx="701.0999999999997" cy="192.0999999999999" r="3.5" fill="#2563eb" opacity="0.7"/>
<circle cx="667.1500000000003" cy="266.0999999999999" r="3.5" fill="#2563eb" opacity="0.7"/>
<circle cx="521.6500000000003" cy="210.59999999999988" r="3.5" fill="#2563eb" opacity="0.7"/>
<circle cx="579.8499999999997" cy="175.45000000000005" r="3.5" fill="#2563eb" opacity="0.7"/>
<circle cx="841.75" cy="151.4000000000001" r="3.5" fill="#2563eb" opacity="0.7"/>
<circle cx="633.2000000000002" cy="127.34999999999991" r="3.5" fill="#2563eb" opacity="0.7"/>
<circle cx="613.7999999999998" cy="271.6500000000001" r="3.5" fill="#2563eb" opacity="0.7"/>
<circle cx="536.2" cy="227.25000000000003" r="3.5" fill="#2563eb" opacity="0.7"/>
<circle cx="798.0999999999998" cy="212.45000000000005" r="3.5" fill="#2563eb" opacity="0.7"/>
<circle cx="642.9000000000003" cy="264.25" r="3.5" fill="#2563eb" opacity="0.7"/>
<circle cx="604.0999999999997" cy="229.0999999999999" r="3.5" fill="#2563eb" opacity="0.7"/>
<circle cx="482.8499999999997" cy="201.3499999999999" r="3.5" fill="#2563eb" opacity="0.7"/>
<circle cx="676.8499999999998" cy="236.49999999999997" r="3.5" fill="#2563eb" opacity="0.7"/>
<circle cx="642.9000000000003" cy="171.75" r="3.5" fill="#2563eb" opacity="0.7"/>
<circle cx="725.3499999999997" cy="430.75" r="3.5" fill="#2563eb" opacity="0.7"/>
<circle cx="744.75" cy="155.0999999999999" r="3.5" fill="#2563eb" opacity="0.7"/>
<circle cx="613.7999999999998" cy="229.0999999999999" r="3.5" fill="#2563eb" opacity="0.7"/>
<circle cx="507.09999999999974" cy="266.0999999999999" r="3.5" fill="#2563eb" opacity="0.7"/>
<circle cx="715.6500000000002" cy="162.5" r="3.5" fill="#2563eb" opacity="0.7"/>
<circle cx="856.2999999999998" cy="430.75" r="3.5" fill="#2563eb" opacity="0.7"/>
<circle cx="773.8499999999998" cy="293.8499999999999" r="3.5" fill="#2563eb" opacity="0.7"/>
<circle cx="458.59999999999974" cy="245.75" r="3.5" fill="#2563eb" opacity="0.7"/>
<circle cx="628.3499999999997" cy="229.0999999999999" r="3.5" fill="#2563eb" opacity="0.7"/>
<circle cx="560.4500000000002" cy="179.1500000000001" r="3.5" fill="#2563eb" opacity="0.7"/>
<circle cx="662.2999999999998" cy="193.95000000000007" r="3.5" fill="#2563eb" opacity="0.7"/>
<circle cx="807.7999999999998" cy="205.04999999999995" r="3.5" fill="#2563eb" opacity="0.7"/>
<circle cx="899.9500000000002" cy="162.5" r="3.5" fill="#2563eb" opacity="0.7"/>
<circle cx="754.4500000000002" cy="229.0999999999999" r="3.5" fill="#2563eb" opacity="0.7"/>
<circle cx="633.2000000000002" cy="162.5" r="3.5" fill="#2563eb" opacity="0.7"/>
<circle cx="710.8" cy="229.0999999999999" r="3.5" fill="#2563eb" opacity="0.7"/>
<circle cx="608.9500000000002" cy="155.0999999999999" r="3.5" fill="#2563eb" opacity="0.7"/>
<circle cx="749.5999999999997" cy="171.75" r="3.5" fill="#2563eb" opacity="0.7"/>
<circle cx="594.4000000000002" cy="171.75" r="3.5" fill="#2563eb" opacity="0.7"/>
<circle cx="686.5499999999998" cy="175.45000000000005" r="3.5" fill="#2563eb" opacity="0.7"/>
<circle cx="715.6500000000002" cy="216.1500000000001" r="3.5" fill="#2563eb" opacity="0.7"/>
<circle cx="739.9000000000002" cy="203.20000000000005" r="3.5" fill="#2563eb" opacity="0.7"/>
<circle cx="705.9500000000002" cy="175.45000000000005" r="3.5" fill="#2563eb" opacity="0.7"/>
<circle cx="710.8" cy="264.25" r="3.5" fill="#2563eb" opacity="0.7"/>
<circle cx="618.6500000000002" cy="293.8499999999999" r="3.5" fill="#2563eb" opacity="0.7"/>
<circle cx="836.9000000000002" cy="227.25000000000003" r="3.5" fill="#2563eb" opacity="0.7"/>
<circle cx="507.09999999999974" cy="229.0999999999999" r="3.5" fill="#2563eb" opacity="0.7"/>
<circle cx="798.0999999999998" cy="175.45000000000005" r="3.5" fill="#2563eb" opacity="0.7"/>
<circle cx="681.7" cy="430.75" r="3.5" fill="#2563eb" opacity="0.7"/>
<circle cx="764.1500000000003" cy="236.49999999999997" r="3.5" fill="#2563eb" opacity="0.7"/>
<circle cx="642.9000000000003" cy="266.0999999999999" r="3.5" fill="#2563eb" opacity="0.7"/>
<circle cx="744.75" cy="175.45000000000005" r="3.5" fill="#2563eb" opacity="0.7"/>
<circle cx="744.75" cy="266.0999999999999" r="3.5" fill="#2563eb" opacity="0.7"/>
<circle cx="783.5499999999998" cy="208.75" r="3.5" fill="#2563eb" opacity="0.7"/>
<circle cx="497.40000000000026" cy="210.59999999999988" r="3.5" fill="#2563eb" opacity="0.7"/>
<circle cx="807.7999999999998" cy="162.5" r="3.5" fill="#2563eb" opacity="0.7"/>
<circle cx="628.3499999999997" cy="201.3499999999999" r="3.5" fill="#2563eb" opacity="0.7"/>
<circle cx="696.25" cy="169.9000000000001" r="3.5" fill="#2563eb" opacity="0.7"/>
<circle cx="812.6500000000003" cy="430.75" r="3.5" fill="#2563eb" opacity="0.7"/>
<circle cx="783.5499999999998" cy="229.0999999999999" r="3.5" fill="#2563eb" opacity="0.7"/>
<circle cx="744.75" cy="245.75" r="3.5" fill="#2563eb" opacity="0.7"/>
<circle cx="628.3499999999997" cy="155.0999999999999" r="3.5" fill="#2563eb" opacity="0.7"/>
<circle cx="594.4000000000002" cy="229.0999999999999" r="3.5" fill="#2563eb" opacity="0.7"/>
<circle cx="560.4500000000002" cy="229.0999999999999" r="3.5" fill="#2563eb" opacity="0.7"/>
<circle cx="633.2000000000002" cy="229.0999999999999" r="3.5" fill="#2563eb" opacity="0.7"/>
<circle cx="691.4000000000003" cy="155.0999999999999" r="3.5" fill="#2563eb" opacity="0.7"/>
<circle cx="642.9000000000003" cy="293.8499999999999" r="3.5" fill="#2563eb" opacity="0.7"/>
<circle cx="565.3" cy="430.75" r="3.5" fill="#2563eb" opacity="0.7"/>
<circle cx="681.7" cy="216.1500000000001" r="3.5" fill="#2563eb" opacity="0.7"/>
<circle cx="458.59999999999974" cy="188.4000000000001" r="3.5" fill="#2563eb" opacity="0.7"/>
<circle cx="647.75" cy="262.4000000000001" r="3.5" fill="#2563eb" opacity="0.7"/>
<circle cx="710.8" cy="199.5" r="3.5" fill="#2563eb" opacity="0.7"/>
<circle cx="667.1500000000003" cy="269.79999999999995" r="3.5" fill="#2563eb" opacity="0.7"/>
<circle cx="623.5" cy="293.8499999999999" r="3.5" fill="#2563eb" opacity="0.7"/>
<circle cx="565.3" cy="293.8499999999999" r="3.5" fill="#2563eb" opacity="0.7"/>
<circle cx="628.3499999999997" cy="229.0999999999999" r="3.5" fill="#2563eb" opacity="0.7"/>
<circle cx="613.7999999999998" cy="293.8499999999999" r="3.5" fill="#2563eb" opacity="0.7"/>
<circle cx="628.3499999999997" cy="245.75" r="3.5" fill="#2563eb" opacity="0.7"/>
<circle cx="589.55" cy="164.34999999999985" r="3.5" fill="#2563eb" opacity="0.7"/>
<circle cx="536.2" cy="192.0999999999999" r="3.5" fill="#2563eb" opacity="0.7"/>
<circle cx="672.0" cy="212.45000000000005" r="3.5" fill="#2563eb" opacity="0.7"/>
<circle cx="565.3" cy="162.5" r="3.5" fill="#2563eb" opacity="0.7"/>
<circle cx="613.7999999999998" cy="210.59999999999988" r="3.5" fill="#2563eb" opacity="0.7"/>
<circle cx="604.0999999999997" cy="266.0999999999999" r="3.5" fill="#2563eb" opacity="0.7"/>
<circle cx="710.8" cy="216.1500000000001" r="3.5" fill="#2563eb" opacity="0.7"/>
<circle cx="880.5499999999998" cy="216.1500000000001" r="3.5" fill="#2563eb" opacity="0.7"/>
<circle cx="541.0499999999998" cy="430.75" r="3.5" fill="#2563eb" opacity="0.7"/>
<circle cx="594.4000000000002" cy="240.20000000000007" r="3.5" fill="#2563eb" opacity="0.7"/>
<circle cx="570.1500000000003" cy="221.70000000000005" r="3.5" fill="#2563eb" opacity="0.7"/>
<circle cx="856.2999999999998" cy="214.29999999999995" r="3.5" fill="#2563eb" opacity="0.7"/>
<circle cx="672.0" cy="175.45000000000005" r="3.5" fill="#2563eb" opacity="0.7"/>
<circle cx="657.4500000000002" cy="212.45000000000005" r="3.5" fill="#2563eb" opacity="0.7"/>
<circle cx="497.40000000000026" cy="169.9000000000001" r="3.5" fill="#2563eb" opacity="0.7"/>
<circle cx="570.1500000000003" cy="205.04999999999995" r="3.5" fill="#2563eb" opacity="0.7"/>
<circle cx="730.2000000000002" cy="256.8499999999999" r="3.5" fill="#2563eb" opacity="0.7"/>
<circle cx="676.8499999999998" cy="240.20000000000007" r="3.5" fill="#2563eb" opacity="0.7"/>
<circle cx="686.5499999999998" cy="229.0999999999999" r="3.5" fill="#2563eb" opacity="0.7"/>
<circle cx="575.0" cy="266.0999999999999" r="3.5" fill="#2563eb" opacity="0.7"/>
<circle cx="516.7999999999998" cy="266.0999999999999" r="3.5" fill="#2563eb" opacity="0.7"/>
<circle cx="812.6500000000003" cy="227.25000000000003" r="3.5" fill="#2563eb" opacity="0.7"/>
<text x="575.0" y="500" text-anchor="middle" font-size="14" font-family="Arial">真实价值评分</text>
<text x="30" y="255.0" text-anchor="middle" font-size="14" font-family="Arial" transform="rotate(-90 30 255.0)">预测价值评分</text>
</svg>